<svg width="2510" height="1785" viewBox="0 0 2510 1785" fill="none" xmlns="http://www.w3.org/2000/svg">
<g clip-path="url(#clip0_195_2)">
<rect width="2510" height="1785" fill="black"/>
<path d="M-6 0V1775.4L2511 1780.34V313.655L2102.8 99.6199L1660.45 183.458L1580.62 313.655H1439.03L1236.18 68.0571L609.568 313.655L-6 0Z" fill="url(#paint0_linear_195_2)" fill-opacity="0.2"/>
<path d="M2 593.354V1764.79H2507V531.18L2181.94 631.842L1919.88 468.019L1552.81 713.754L1189.24 499.599L866.673 531.18L385.076 669.344L2 593.354Z" fill="url(#paint1_linear_195_2)" fill-opacity="0.3"/>
<path d="M-4 953.271V1785H2510V1098.31L2455.51 1010.5L2261.05 802.317L1610.18 1098.31H1304.24L914.817 878.287L439.412 1098.31L155.468 1148.62L-4 953.271Z" fill="url(#paint2_linear_195_2)" fill-opacity="0.4"/>
<path d="M-6 1415.73V1775.67H2504V1357.53L2266.48 1438.3L2018.94 1287.44L1499.3 1391.98L763.687 1287.44L315.204 1479.88L-6 1415.73Z" fill="url(#paint3_linear_195_2)" fill-opacity="0.5"/>
</g>
<defs>
<linearGradient id="paint0_linear_195_2" x1="771.744" y1="1780.34" x2="2151.62" y2="45.7133" gradientUnits="userSpaceOnUse">
<stop stop-color="#4717F7"/>
<stop offset="1" stop-color="#A43ACB"/>
</linearGradient>
<linearGradient id="paint1_linear_195_2" x1="1323.26" y1="1764.79" x2="1381.61" y2="385.968" gradientUnits="userSpaceOnUse">
<stop stop-color="#4717F7"/>
<stop offset="1" stop-color="#A43ACB"/>
</linearGradient>
<linearGradient id="paint2_linear_195_2" x1="782.844" y1="2003.05" x2="1458.09" y2="826.113" gradientUnits="userSpaceOnUse">
<stop offset="0.114868" stop-color="#4717F7"/>
<stop offset="1" stop-color="#A43ACB"/>
</linearGradient>
<linearGradient id="paint3_linear_195_2" x1="1249" y1="1776.65" x2="1249" y2="1288.42" gradientUnits="userSpaceOnUse">
<stop stop-color="#4717F7"/>
<stop offset="1" stop-color="#A43ACB"/>
</linearGradient>
<clipPath id="clip0_195_2">
<rect width="2510" height="1785" fill="white"/>
</clipPath>
</defs>
</svg>
