<svg width="1479" height="1643" viewBox="0 0 1479 1643" fill="none" xmlns="http://www.w3.org/2000/svg">
<path d="M316.212 426.379L239.977 294.336L316.212 162.292H468.683L544.918 294.336L468.683 426.379H316.212Z" stroke="#FE8A20" stroke-width="10"/>
<path d="M547.247 556.141L471.012 424.098L547.247 292.054H699.718L775.953 424.098L699.718 556.141H547.247Z" stroke="#FE8A20" stroke-width="10"/>
<path d="M82.0089 556.141L5.7735 424.098L82.0089 292.054H234.48L310.715 424.098L234.48 556.141H82.0089Z" stroke="#FE8A20" stroke-width="10"/>
<path d="M547.247 821.992L471.012 689.948L547.247 557.905H699.718L775.953 689.948L699.718 821.992H547.247Z" stroke="#FE8A20" stroke-width="10"/>
<path d="M82.0089 821.992L5.7735 689.948L82.0089 557.905H234.48L310.715 689.948L234.48 821.992H82.0089Z" stroke="#FE8A20" stroke-width="10"/>
<path d="M316.212 954.916L239.977 822.872L316.212 690.828H468.683L544.918 822.872L468.683 954.916H316.212Z" stroke="#FE8A20" stroke-width="10"/>
<path d="M547.247 1087.84L471.012 955.793L547.247 823.749H699.718L775.953 955.793L699.718 1087.84H547.247Z" stroke="#FE8A20" stroke-width="10"/>
<path d="M778.282 1217.6L702.047 1085.55L778.282 953.511H930.753L1006.99 1085.55L930.753 1217.6H778.282Z" stroke="#FE8A20" stroke-width="10"/>
<path d="M313.044 1217.6L236.809 1085.55L313.044 953.511H465.515L541.75 1085.55L465.515 1217.6H313.044Z" stroke="#FE8A20" stroke-width="10"/>
<path d="M778.282 1483.45L702.047 1351.41L778.282 1219.36H930.753L1006.99 1351.41L930.753 1483.45H778.282Z" stroke="#FE8A20" stroke-width="10"/>
<path d="M313.044 1483.45L236.809 1351.41L313.044 1219.36H465.515L541.75 1351.41L465.515 1483.45H313.044Z" stroke="#FE8A20" stroke-width="10"/>
<path d="M547.247 1616.37L471.012 1484.33L547.247 1352.29H699.718L775.953 1484.33L699.718 1616.37H547.247Z" stroke="#FE8A20" stroke-width="10"/>
<path d="M1012.49 290.288L936.254 158.244L1012.49 26.2006H1164.96L1241.2 158.244L1164.96 290.288H1012.49Z" stroke="#FE8A20" stroke-width="10"/>
<path d="M1243.52 420.049L1167.29 288.006L1243.52 155.962H1396L1472.23 288.006L1396 420.049H1243.52Z" stroke="#FE8A20" stroke-width="10"/>
<path d="M778.286 420.049L702.051 288.006L778.286 155.962H930.757L1006.99 288.006L930.757 420.049H778.286Z" stroke="#FE8A20" stroke-width="10"/>
<path d="M1243.52 685.9L1167.29 553.856L1243.52 421.813H1396L1472.23 553.856L1396 685.9H1243.52Z" stroke="#FE8A20" stroke-width="10"/>
<path d="M778.286 685.9L702.051 553.856L778.286 421.813H930.757L1006.99 553.856L930.757 685.9H778.286Z" stroke="#FE8A20" stroke-width="10"/>
<path d="M1012.49 818.824L936.254 686.78L1012.49 554.737H1164.96L1241.2 686.78L1164.96 818.824H1012.49Z" stroke="#FE8A20" stroke-width="10"/>
</svg>
