<svg width="312" height="23" viewBox="0 0 312 23" fill="none" xmlns="http://www.w3.org/2000/svg">
<path d="M3.104 21.624V0.631998H18.816V4.184H6.88V10.104H17.6V13.464H6.88V19.448H19.2V21.624H22.304V23H0V21.624H3.104ZM40.2655 21.624V23H20.9375V21.624H28.7135V4.088H21.9295V0.631998H39.2735V4.088H32.4895V21.624H40.2655ZM38.554 23V21.624H41.626L48.41 11.512L41.274 0.631998H45.946L50.938 8.184H51.098L56.09 0.631998H60.762L53.626 11.512L60.378 21.624H63.482V23H56.602L51.098 14.584H50.938L45.434 23H38.554ZM70.5493 21.624V23H61.7812V21.624H70.5493ZM97.4105 21.624V23H90.2745L88.0345 17.912H76.8345L74.5945 23H67.4585V21.624H71.1705L80.4185 0.631998H84.4505L93.6985 21.624H97.4105ZM86.4985 14.424L82.4345 5.208L78.3705 14.424H86.4985ZM118.889 21.624V23H94.3125V21.624H100.937C98.3978 19.8533 97.1285 17.048 97.1285 13.208V0.631998H100.905V13.048C100.905 15.096 101.417 16.7173 102.441 17.912C103.465 19.1067 104.851 19.704 106.601 19.704C108.35 19.704 109.737 19.1067 110.76 17.912C111.785 16.7173 112.297 15.096 112.297 13.048V0.631998H116.073V13.208C116.073 17.0693 114.793 19.8747 112.233 21.624H118.889ZM138.203 21.624V23H118.875V21.624H126.651V4.088H119.867V0.631998H137.211V4.088H130.427V21.624H138.203ZM165.068 21.624V23H138.188V21.624H145.516C143.766 20.6213 142.38 19.2453 141.356 17.496C140.353 15.7467 139.852 13.7947 139.852 11.64C139.852 8.35467 140.982 5.61333 143.244 3.416C145.505 1.19733 148.3 0.0879993 151.628 0.0879993C154.956 0.0879993 157.75 1.19733 160.012 3.416C162.273 5.61333 163.404 8.35467 163.404 11.64C163.404 13.7733 162.892 15.7253 161.868 17.496C160.865 19.2667 159.489 20.6427 157.74 21.624H165.068ZM157.228 5.912C155.713 4.33333 153.846 3.544 151.628 3.544C149.409 3.544 147.532 4.33333 145.996 5.912C144.481 7.49067 143.724 9.41067 143.724 11.672C143.724 13.912 144.481 15.8213 145.996 17.4C147.532 18.9787 149.409 19.768 151.628 19.768C153.846 19.768 155.713 18.9787 157.228 17.4C158.764 15.8213 159.532 13.912 159.532 11.672C159.532 9.41067 158.764 7.49067 157.228 5.912ZM173.831 21.624V23H165.062V21.624H173.831Z" fill="#EFEFF6"/>
<path d="M198.868 21.624V23H173.844V21.624H176.948V0.631998H184.628C188.638 0.631998 191.721 1.61333 193.876 3.576C196.03 5.51733 197.108 8.25867 197.108 11.8C197.108 16.5573 195.23 19.832 191.476 21.624H198.868ZM193.3 11.8C193.3 6.68 190.366 4.12 184.5 4.12H180.724V19.448H184.916C187.625 19.448 189.694 18.808 191.124 17.528C192.574 16.2267 193.3 14.3173 193.3 11.8ZM201.979 21.624V0.631998H217.691V4.184H205.755V10.104H216.475V13.464H205.755V19.448H218.075V21.624H221.179V23H198.875V21.624H201.979ZM239.141 21.624V23H219.812V21.624H227.589V4.088H220.805V0.631998H238.149V4.088H231.365V21.624H239.141ZM265.973 21.624V23H258.837L256.597 17.912H245.397L243.157 23H236.021V21.624H239.733L248.981 0.631998H253.013L262.261 21.624H265.973ZM255.061 14.424L250.997 5.208L246.933 14.424H255.061ZM265.979 21.624V0.631998H269.755V21.624H272.859V23H262.875V21.624H265.979ZM293.036 21.624V23H272.844V21.624H275.948V0.631998H279.724V19.416H289.932V21.624H293.036ZM311.129 21.624V23H290.969V21.624H295.065C294.041 21.0907 293.102 20.4293 292.249 19.64L294.617 16.792C296.878 18.7547 299.225 19.736 301.657 19.736C302.873 19.736 303.833 19.48 304.537 18.968C305.262 18.4347 305.625 17.7413 305.625 16.888C305.625 16.0133 305.283 15.3413 304.601 14.872C303.939 14.3813 302.787 13.944 301.145 13.56C299.502 13.1547 298.254 12.792 297.401 12.472C296.547 12.1307 295.79 11.6933 295.129 11.16C293.806 10.1573 293.145 8.62133 293.145 6.552C293.145 4.48267 293.891 2.89333 295.385 1.784C296.899 0.653332 298.766 0.0879993 300.985 0.0879993C302.414 0.0879993 303.833 0.322666 305.241 0.792C306.649 1.26133 307.865 1.92267 308.889 2.776L306.873 5.624C306.211 5.02667 305.315 4.536 304.185 4.152C303.054 3.768 301.934 3.576 300.825 3.576C299.737 3.576 298.841 3.8 298.137 4.248C297.433 4.696 297.081 5.37867 297.081 6.296C297.081 7.192 297.433 7.88533 298.137 8.376C298.841 8.84533 300.334 9.35733 302.617 9.912C304.921 10.4667 306.649 11.2453 307.801 12.248C308.974 13.2507 309.561 14.6587 309.561 16.472C309.561 18.6693 308.75 20.3867 307.129 21.624H311.129Z" fill="#FF9900"/>
</svg>
