<svg width="304" height="23" viewBox="0 0 304 23" fill="none" xmlns="http://www.w3.org/2000/svg">
<path d="M22.4 21.624V23H0V21.624H8.512L0.096 0.631998H4.32L11.2 17.336L18.08 0.631998H22.304L13.856 21.624H22.4ZM25.5103 21.624V0.631998H29.2863V21.624H32.3903V23H22.4062V21.624H25.5103ZM54.263 21.624V23H32.375V21.624H35.479V0.631998H43.159C46.551 0.631998 49.0257 1.28267 50.583 2.584C52.1403 3.88533 52.919 5.89067 52.919 8.6C52.919 11.3093 52.119 13.2933 50.519 14.552C48.9403 15.8107 46.5083 16.44 43.223 16.44H39.255V21.624H54.263ZM43.639 13.016C45.7297 13.016 47.1483 12.6213 47.895 11.832C48.663 11.0213 49.047 9.848 49.047 8.312C49.047 6.75467 48.567 5.656 47.607 5.016C46.647 4.376 45.143 4.056 43.095 4.056H39.255V13.016H43.639ZM63.018 21.624V23H54.25V21.624H63.018ZM89.8793 21.624V23H82.7433L80.5033 17.912H69.3033L67.0633 23H59.9272V21.624H63.6393L72.8873 0.631998H76.9193L86.1673 21.624H89.8793ZM78.9673 14.424L74.9033 5.208L70.8393 14.424H78.9673ZM111.357 21.624V23H86.7812V21.624H93.4053C90.8666 19.8533 89.5973 17.048 89.5973 13.208V0.631998H93.3733V13.048C93.3733 15.096 93.8853 16.7173 94.9093 17.912C95.9333 19.1067 97.3199 19.704 99.0693 19.704C100.819 19.704 102.205 19.1067 103.229 17.912C104.253 16.7173 104.765 15.096 104.765 13.048V0.631998H108.541V13.208C108.541 17.0693 107.261 19.8747 104.701 21.624H111.357ZM130.672 21.624V23H111.344V21.624H119.12V4.088H112.336V0.631998H129.68V4.088H122.896V21.624H130.672ZM157.536 21.624V23H130.656V21.624H137.984C136.235 20.6213 134.848 19.2453 133.824 17.496C132.822 15.7467 132.32 13.7947 132.32 11.64C132.32 8.35467 133.451 5.61333 135.712 3.416C137.974 1.19733 140.768 0.0879993 144.096 0.0879993C147.424 0.0879993 150.219 1.19733 152.48 3.416C154.742 5.61333 155.872 8.35467 155.872 11.64C155.872 13.7733 155.36 15.7253 154.336 17.496C153.334 19.2667 151.958 20.6427 150.208 21.624H157.536ZM149.696 5.912C148.182 4.33333 146.315 3.544 144.096 3.544C141.878 3.544 140 4.33333 138.464 5.912C136.95 7.49067 136.192 9.41067 136.192 11.672C136.192 13.912 136.95 15.8213 138.464 17.4C140 18.9787 141.878 19.768 144.096 19.768C146.315 19.768 148.182 18.9787 149.696 17.4C151.232 15.8213 152 13.912 152 11.672C152 9.41067 151.232 7.49067 149.696 5.912ZM166.299 21.624V23H157.531V21.624H166.299Z" fill="#EFEFF6"/>
<path d="M191.337 21.624V23H166.312V21.624H169.417V0.631998H177.097C181.107 0.631998 184.19 1.61333 186.345 3.576C188.499 5.51733 189.577 8.25867 189.577 11.8C189.577 16.5573 187.699 19.832 183.944 21.624H191.337ZM185.769 11.8C185.769 6.68 182.835 4.12 176.969 4.12H173.193V19.448H177.385C180.094 19.448 182.163 18.808 183.593 17.528C185.043 16.2267 185.769 14.3173 185.769 11.8ZM194.448 21.624V0.631998H210.16V4.184H198.224V10.104H208.944V13.464H198.224V19.448H210.544V21.624H213.648V23H191.344V21.624H194.448ZM231.609 21.624V23H212.281V21.624H220.057V4.088H213.273V0.631998H230.617V4.088H223.833V21.624H231.609ZM258.442 21.624V23H251.306L249.066 17.912H237.866L235.626 23H228.49V21.624H232.202L241.45 0.631998H245.482L254.73 21.624H258.442ZM247.53 14.424L243.466 5.208L239.402 14.424H247.53ZM258.448 21.624V0.631998H262.224V21.624H265.328V23H255.344V21.624H258.448ZM285.505 21.624V23H265.312V21.624H268.417V0.631998H272.193V19.416H282.401V21.624H285.505ZM303.598 21.624V23H283.438V21.624H287.534C286.51 21.0907 285.571 20.4293 284.718 19.64L287.086 16.792C289.347 18.7547 291.694 19.736 294.126 19.736C295.342 19.736 296.302 19.48 297.006 18.968C297.731 18.4347 298.094 17.7413 298.094 16.888C298.094 16.0133 297.752 15.3413 297.07 14.872C296.408 14.3813 295.256 13.944 293.614 13.56C291.971 13.1547 290.723 12.792 289.87 12.472C289.016 12.1307 288.259 11.6933 287.598 11.16C286.275 10.1573 285.614 8.62133 285.614 6.552C285.614 4.48267 286.36 2.89333 287.854 1.784C289.368 0.653332 291.235 0.0879993 293.454 0.0879993C294.883 0.0879993 296.302 0.322666 297.71 0.792C299.118 1.26133 300.334 1.92267 301.358 2.776L299.342 5.624C298.68 5.02667 297.784 4.536 296.654 4.152C295.523 3.768 294.403 3.576 293.294 3.576C292.206 3.576 291.31 3.8 290.606 4.248C289.902 4.696 289.55 5.37867 289.55 6.296C289.55 7.192 289.902 7.88533 290.606 8.376C291.31 8.84533 292.803 9.35733 295.086 9.912C297.39 10.4667 299.118 11.2453 300.27 12.248C301.443 13.2507 302.03 14.6587 302.03 16.472C302.03 18.6693 301.219 20.3867 299.597 21.624H303.598Z" fill="#FF9900"/>
</svg>
