<svg width="1053" height="951" viewBox="0 0 1053 951" fill="none" xmlns="http://www.w3.org/2000/svg">
<g opacity="0.15" filter="url(#filter0_f_182_5)">
<path d="M216.5 725.5L26.3565 312.785C24.5042 308.765 26.2689 304.005 30.2943 302.163L633.284 26.3012C637.279 24.4736 642 26.209 643.86 30.1887L837.5 444.5M216.5 725.5L151.881 909.078C151.015 911.536 151.402 914.263 152.917 916.384L156.696 921.674C158.909 924.772 162.999 925.881 166.474 924.326L1022.02 541.346C1026.12 539.511 1027.91 534.661 1025.98 530.605L1020.85 519.832C1019.98 518.011 1018.46 516.585 1016.59 515.839L837.5 444.5M216.5 725.5L302.583 685.986C305.798 684.511 309.599 685.321 311.932 687.978L326 704M837.5 444.5L758.026 482.818C755.259 484.152 753.5 486.952 753.5 490.024V503M326 704L241.485 740.975C239.28 741.94 237.626 743.846 236.983 746.166L221.038 803.641C219.23 810.16 225.827 815.841 232.005 813.086L444.5 718.331M326 704L753.5 503M753.5 503L819.028 477.833C821.23 476.988 823.692 477.157 825.757 478.295L881.912 509.237C887.7 512.426 887.345 520.86 881.31 523.551L670.25 617.666M444.5 718.331L455.798 753.974C457.239 758.521 462.314 760.805 466.673 758.868L691.737 658.839C696.615 656.671 698.042 650.424 694.588 646.353L670.25 617.666M444.5 718.331L670.25 617.666M791.085 428.215L621.885 67.2213C620.014 63.2295 615.266 61.5037 611.268 63.3623L69.7801 315.115C65.7636 316.983 64.0289 321.758 65.9105 325.768L234.622 685.302C236.491 689.284 241.225 691.011 245.219 689.166L787.196 438.873C791.223 437.013 792.968 432.232 791.085 428.215Z" stroke="#A43ACB" stroke-width="11"/>
</g>
<path d="M216.5 725.5L26.3565 312.785C24.5042 308.765 26.2689 304.005 30.2943 302.163L633.284 26.3012C637.279 24.4736 642 26.209 643.86 30.1887L837.5 444.5M216.5 725.5L151.881 909.078C151.015 911.536 151.402 914.263 152.917 916.384L156.696 921.674C158.909 924.772 162.999 925.881 166.474 924.326L1022.02 541.346C1026.12 539.511 1027.91 534.661 1025.98 530.605L1020.85 519.832C1019.98 518.011 1018.46 516.585 1016.59 515.839L837.5 444.5M216.5 725.5L302.583 685.986C305.798 684.511 309.599 685.321 311.932 687.978L326 704M837.5 444.5L758.026 482.818C755.259 484.152 753.5 486.952 753.5 490.024V503M326 704L241.485 740.975C239.28 741.94 237.626 743.846 236.983 746.166L221.038 803.641C219.23 810.16 225.827 815.841 232.005 813.086L444.5 718.331M326 704L753.5 503M753.5 503L819.028 477.833C821.23 476.988 823.692 477.157 825.757 478.295L881.912 509.237C887.7 512.426 887.345 520.86 881.31 523.551L670.25 617.666M444.5 718.331L455.798 753.974C457.239 758.521 462.314 760.805 466.673 758.868L691.737 658.839C696.615 656.671 698.042 650.424 694.588 646.353L670.25 617.666M444.5 718.331L670.25 617.666M791.085 428.215L621.885 67.2213C620.014 63.2295 615.266 61.5037 611.268 63.3623L69.7801 315.115C65.7636 316.983 64.0289 321.758 65.9105 325.768L234.622 685.302C236.491 689.284 241.225 691.011 245.219 689.166L787.196 438.873C791.223 437.013 792.968 432.232 791.085 428.215Z" stroke="#A43ACB" stroke-width="3"/>
<defs>
<filter id="filter0_f_182_5" x="0.119141" y="0.0728149" width="1052.14" height="950.452" filterUnits="userSpaceOnUse" color-interpolation-filters="sRGB">
<feFlood flood-opacity="0" result="BackgroundImageFix"/>
<feBlend mode="normal" in="SourceGraphic" in2="BackgroundImageFix" result="shape"/>
<feGaussianBlur stdDeviation="10" result="effect1_foregroundBlur_182_5"/>
</filter>
</defs>
</svg>
