<svg width="355" height="249" viewBox="0 0 355 249" fill="none" xmlns="http://www.w3.org/2000/svg">
<rect x="32.0195" y="24.7295" width="39.3208" height="138.786" fill="#FCA311"/>
<path d="M0 0H174.089L149.27 24.7313H32.1859V24.7313C25.7404 13.3839 9.84623 12.1957 1.78513 22.4586L0 24.7313V0Z" fill="#FCA311"/>
<path d="M98.4416 190.44H17.7438L0 219.577H134.325C149.624 219.577 164.263 213.348 174.872 202.325C182.21 194.7 186.31 184.528 186.31 173.945V158.514C186.31 137.919 180.079 117.805 168.436 100.816L158.268 85.9806V74.3568H185.452C185.926 74.3568 186.31 73.9728 186.31 73.4992V71.1143C186.31 58.6962 176.243 48.6294 163.825 48.6294H128.902C114.147 48.6294 102.185 60.5908 102.185 75.3459C102.185 82.2032 104.667 88.8288 109.171 93.9992L121.965 108.685C132.196 120.428 137.831 135.476 137.831 151.05C137.831 172.805 120.196 190.44 98.4416 190.44Z" fill="#FCA311"/>
<path d="M227.865 217.866V200.394C227.865 198.645 227.566 197.194 226.969 196.042C226.371 194.89 225.411 194.015 224.089 193.418C222.809 192.821 221.081 192.522 218.905 192.522C216.814 192.522 214.915 192.927 213.209 193.738C211.502 194.506 210.115 195.53 209.049 196.81C207.982 198.047 207.385 199.37 207.257 200.778L207.193 197.258C207.406 195.85 207.897 194.442 208.665 193.034C209.433 191.626 210.457 190.346 211.737 189.194C213.017 188.042 214.553 187.125 216.345 186.442C218.179 185.717 220.227 185.354 222.489 185.354C224.451 185.354 226.265 185.61 227.929 186.122C229.593 186.591 231.043 187.338 232.281 188.362C233.518 189.386 234.478 190.666 235.161 192.202C235.843 193.695 236.185 195.466 236.185 197.514V217.866H227.865ZM199.385 217.866V173.258H207.705V217.866H199.385ZM262.498 218.634C258.488 218.634 254.946 217.994 251.874 216.714C248.845 215.434 246.477 213.578 244.77 211.146C243.064 208.671 242.21 205.642 242.21 202.058C242.21 198.474 243.064 195.445 244.77 192.97C246.477 190.453 248.845 188.554 251.874 187.274C254.946 185.994 258.488 185.354 262.498 185.354C266.509 185.354 270.008 185.994 272.994 187.274C276.024 188.554 278.392 190.453 280.098 192.97C281.805 195.445 282.658 198.474 282.658 202.058C282.658 205.642 281.805 208.671 280.098 211.146C278.392 213.578 276.024 215.434 272.994 216.714C270.008 217.994 266.509 218.634 262.498 218.634ZM262.498 212.234C264.717 212.234 266.701 211.85 268.45 211.082C270.242 210.271 271.65 209.119 272.674 207.626C273.698 206.09 274.21 204.234 274.21 202.058C274.21 199.882 273.698 198.026 272.674 196.49C271.65 194.911 270.264 193.717 268.514 192.906C266.765 192.095 264.76 191.69 262.498 191.69C260.28 191.69 258.274 192.095 256.482 192.906C254.69 193.717 253.261 194.89 252.194 196.426C251.17 197.962 250.658 199.839 250.658 202.058C250.658 204.234 251.17 206.09 252.194 207.626C253.218 209.119 254.626 210.271 256.418 211.082C258.21 211.85 260.237 212.234 262.498 212.234ZM311.977 218.634C309.161 218.634 306.75 218.143 304.745 217.162C302.782 216.138 301.182 214.815 299.945 213.194C298.707 211.53 297.79 209.717 297.193 207.754C296.595 205.791 296.297 203.871 296.297 201.994C296.297 199.647 296.574 197.471 297.129 195.466C297.726 193.461 298.643 191.711 299.881 190.218C301.118 188.682 302.718 187.487 304.681 186.634C306.686 185.781 309.118 185.354 311.977 185.354C315.177 185.354 318.057 186.058 320.617 187.466C323.177 188.874 325.203 190.837 326.697 193.354C328.233 195.829 329.001 198.709 329.001 201.994C329.001 205.365 328.233 208.309 326.697 210.826C325.161 213.301 323.113 215.221 320.553 216.586C317.993 217.951 315.134 218.634 311.977 218.634ZM309.289 212.17C311.55 212.17 313.513 211.743 315.177 210.89C316.883 210.037 318.185 208.863 319.081 207.37C320.019 205.834 320.489 204.042 320.489 201.994C320.489 198.922 319.507 196.447 317.545 194.57C315.625 192.693 312.873 191.754 309.289 191.754C307.027 191.754 304.958 192.159 303.081 192.97C301.246 193.781 299.795 194.954 298.729 196.49C297.662 197.983 297.129 199.818 297.129 201.994C297.129 204.042 297.619 205.834 298.601 207.37C299.582 208.863 300.99 210.037 302.825 210.89C304.659 211.743 306.814 212.17 309.289 212.17ZM288.809 186.058H296.745L297.129 194.506V230.666H288.809V186.058Z" fill="#FCA311"/>
</svg>
