<svg width="347" height="261" viewBox="0 0 347 261" fill="none" xmlns="http://www.w3.org/2000/svg">
<rect width="347" height="261" rx="33" fill="#1A132C"/>
<path d="M17.71 59V48.5H18.625L23.425 56.69H22.945L27.7 48.5H28.615V59H27.55V50.165H27.805L23.425 57.665H22.9L18.49 50.165H18.775V59H17.71ZM36.7462 59V57.26L36.7012 56.975V54.065C36.7012 53.395 36.5112 52.88 36.1312 52.52C35.7612 52.16 35.2062 51.98 34.4662 51.98C33.9562 51.98 33.4712 52.065 33.0112 52.235C32.5512 52.405 32.1612 52.63 31.8412 52.91L31.3612 52.115C31.7612 51.775 32.2412 51.515 32.8012 51.335C33.3612 51.145 33.9512 51.05 34.5712 51.05C35.5912 51.05 36.3762 51.305 36.9262 51.815C37.4862 52.315 37.7662 53.08 37.7662 54.11V59H36.7462ZM34.0312 59.075C33.4412 59.075 32.9262 58.98 32.4862 58.79C32.0562 58.59 31.7262 58.32 31.4962 57.98C31.2662 57.63 31.1512 57.23 31.1512 56.78C31.1512 56.37 31.2462 56 31.4362 55.67C31.6362 55.33 31.9562 55.06 32.3962 54.86C32.8462 54.65 33.4462 54.545 34.1962 54.545H36.9112V55.34H34.2262C33.4662 55.34 32.9362 55.475 32.6362 55.745C32.3462 56.015 32.2012 56.35 32.2012 56.75C32.2012 57.2 32.3762 57.56 32.7262 57.83C33.0762 58.1 33.5662 58.235 34.1962 58.235C34.7962 58.235 35.3112 58.1 35.7412 57.83C36.1812 57.55 36.5012 57.15 36.7012 56.63L36.9412 57.365C36.7412 57.885 36.3912 58.3 35.8912 58.61C35.4012 58.92 34.7812 59.075 34.0312 59.075ZM40.6588 59V51.125H41.6788V53.27L41.5738 52.895C41.7938 52.295 42.1638 51.84 42.6838 51.53C43.2038 51.21 43.8488 51.05 44.6188 51.05V52.085C44.5788 52.085 44.5388 52.085 44.4988 52.085C44.4588 52.075 44.4188 52.07 44.3788 52.07C43.5488 52.07 42.8988 52.325 42.4288 52.835C41.9588 53.335 41.7238 54.05 41.7238 54.98V59H40.6588Z" fill="white"/>
<line x1="14.5" y1="252" x2="14.5" y2="70" stroke="#636363" stroke-width="3"/>
<line x1="332.5" y1="253" x2="332.5" y2="72" stroke="#636363" stroke-width="3"/>
<line x1="118.5" y1="252" x2="118.5" y2="70" stroke="#636363" stroke-width="3"/>
<line x1="225.5" y1="251" x2="225.5" y2="69" stroke="#636363" stroke-width="3"/>
<path d="M45.3983 176.333L16 252H332V150.464L324.739 145L298.383 150.464H279.557L252.933 159.115L242.444 166.364L215.918 181.817L174.134 164.099L164.177 159.115L148.055 166.364H136.438L126.007 159.115L112.493 166.364L85.9395 174.067L67.447 185.395L45.3983 176.333Z" fill="url(#paint0_linear_113_69)"/>
<path d="M308.835 59.09C308.245 59.09 307.69 58.96 307.17 58.7C306.66 58.44 306.25 58.07 305.94 57.59L306.585 56.84C306.875 57.26 307.21 57.58 307.59 57.8C307.97 58.02 308.39 58.13 308.85 58.13C310.15 58.13 310.8 57.36 310.8 55.82V49.46H306.96V48.5H311.895V55.775C311.895 56.885 311.635 57.715 311.115 58.265C310.605 58.815 309.845 59.09 308.835 59.09ZM318.255 59.075C317.585 59.075 317 58.95 316.5 58.7C316 58.45 315.61 58.075 315.33 57.575C315.06 57.075 314.925 56.45 314.925 55.7V51.125H315.99V55.58C315.99 56.42 316.195 57.055 316.605 57.485C317.025 57.905 317.61 58.115 318.36 58.115C318.91 58.115 319.385 58.005 319.785 57.785C320.195 57.555 320.505 57.225 320.715 56.795C320.935 56.365 321.045 55.85 321.045 55.25V51.125H322.11V59H321.09V56.84L321.255 57.23C321.005 57.81 320.615 58.265 320.085 58.595C319.565 58.915 318.955 59.075 318.255 59.075ZM329.098 51.05C329.738 51.05 330.298 51.175 330.778 51.425C331.268 51.665 331.648 52.035 331.918 52.535C332.198 53.035 332.338 53.665 332.338 54.425V59H331.273V54.53C331.273 53.7 331.063 53.075 330.643 52.655C330.233 52.225 329.653 52.01 328.903 52.01C328.343 52.01 327.853 52.125 327.433 52.355C327.023 52.575 326.703 52.9 326.473 53.33C326.253 53.75 326.143 54.26 326.143 54.86V59H325.078V51.125H326.098V53.285L325.933 52.88C326.183 52.31 326.583 51.865 327.133 51.545C327.683 51.215 328.338 51.05 329.098 51.05Z" fill="white"/>
<path d="M118.03 59L122.83 48.5H123.925L128.725 59H127.555L123.145 49.145H123.595L119.185 59H118.03ZM119.92 56.195L120.25 55.295H126.355L126.685 56.195H119.92ZM134.302 59.075C133.622 59.075 133.007 58.92 132.457 58.61C131.907 58.29 131.467 57.835 131.137 57.245C130.817 56.645 130.657 55.915 130.657 55.055C130.657 54.195 130.817 53.47 131.137 52.88C131.457 52.28 131.892 51.825 132.442 51.515C132.992 51.205 133.612 51.05 134.302 51.05C135.052 51.05 135.722 51.22 136.312 51.56C136.912 51.89 137.382 52.36 137.722 52.97C138.062 53.57 138.232 54.265 138.232 55.055C138.232 55.855 138.062 56.555 137.722 57.155C137.382 57.755 136.912 58.225 136.312 58.565C135.722 58.905 135.052 59.075 134.302 59.075ZM130.237 61.91V51.125H131.257V53.495L131.152 55.07L131.302 56.66V61.91H130.237ZM134.227 58.13C134.787 58.13 135.287 58.005 135.727 57.755C136.167 57.495 136.517 57.135 136.777 56.675C137.037 56.205 137.167 55.665 137.167 55.055C137.167 54.445 137.037 53.91 136.777 53.45C136.517 52.99 136.167 52.63 135.727 52.37C135.287 52.11 134.787 51.98 134.227 51.98C133.667 51.98 133.162 52.11 132.712 52.37C132.272 52.63 131.922 52.99 131.662 53.45C131.412 53.91 131.287 54.445 131.287 55.055C131.287 55.665 131.412 56.205 131.662 56.675C131.922 57.135 132.272 57.495 132.712 57.755C133.162 58.005 133.667 58.13 134.227 58.13ZM140.403 59V51.125H141.423V53.27L141.318 52.895C141.538 52.295 141.908 51.84 142.428 51.53C142.948 51.21 143.593 51.05 144.363 51.05V52.085C144.323 52.085 144.283 52.085 144.243 52.085C144.203 52.075 144.163 52.07 144.123 52.07C143.293 52.07 142.643 52.325 142.173 52.835C141.703 53.335 141.468 54.05 141.468 54.98V59H140.403Z" fill="white"/>
<path d="M230.71 59V48.5H231.625L236.425 56.69H235.945L240.7 48.5H241.615V59H240.55V50.165H240.805L236.425 57.665H235.9L231.49 50.165H231.775V59H230.71ZM249.746 59V57.26L249.701 56.975V54.065C249.701 53.395 249.511 52.88 249.131 52.52C248.761 52.16 248.206 51.98 247.466 51.98C246.956 51.98 246.471 52.065 246.011 52.235C245.551 52.405 245.161 52.63 244.841 52.91L244.361 52.115C244.761 51.775 245.241 51.515 245.801 51.335C246.361 51.145 246.951 51.05 247.571 51.05C248.591 51.05 249.376 51.305 249.926 51.815C250.486 52.315 250.766 53.08 250.766 54.11V59H249.746ZM247.031 59.075C246.441 59.075 245.926 58.98 245.486 58.79C245.056 58.59 244.726 58.32 244.496 57.98C244.266 57.63 244.151 57.23 244.151 56.78C244.151 56.37 244.246 56 244.436 55.67C244.636 55.33 244.956 55.06 245.396 54.86C245.846 54.65 246.446 54.545 247.196 54.545H249.911V55.34H247.226C246.466 55.34 245.936 55.475 245.636 55.745C245.346 56.015 245.201 56.35 245.201 56.75C245.201 57.2 245.376 57.56 245.726 57.83C246.076 58.1 246.566 58.235 247.196 58.235C247.796 58.235 248.311 58.1 248.741 57.83C249.181 57.55 249.501 57.15 249.701 56.63L249.941 57.365C249.741 57.885 249.391 58.3 248.891 58.61C248.401 58.92 247.781 59.075 247.031 59.075ZM253.572 61.985C253.202 61.985 252.847 61.925 252.507 61.805C252.177 61.685 251.892 61.505 251.652 61.265L252.147 60.47C252.347 60.66 252.562 60.805 252.792 60.905C253.032 61.015 253.297 61.07 253.587 61.07C253.937 61.07 254.237 60.97 254.487 60.77C254.747 60.58 254.992 60.24 255.222 59.75L255.732 58.595L255.852 58.43L259.092 51.125H260.142L256.197 59.945C255.977 60.455 255.732 60.86 255.462 61.16C255.202 61.46 254.917 61.67 254.607 61.79C254.297 61.92 253.952 61.985 253.572 61.985ZM255.672 59.225L252.042 51.125H253.152L256.362 58.355L255.672 59.225Z" fill="white"/>
<defs>
<linearGradient id="paint0_linear_113_69" x1="16" y1="198.5" x2="332" y2="198.5" gradientUnits="userSpaceOnUse">
<stop stop-color="#4717F7"/>
<stop offset="1" stop-color="#A43ACB"/>
</linearGradient>
</defs>
</svg>
