<svg width="1018" height="376" viewBox="0 0 1018 376" fill="none" xmlns="http://www.w3.org/2000/svg">
<path d="M99.6094 132.16L79.6289 147.863H31.0547V221.691C31.0547 224.348 31.7773 226.75 33.2227 228.898C34.5508 230.852 36.0938 232.121 37.8516 232.707V233H6.62109V232.707C11.1523 230.91 13.418 227.219 13.418 221.633V147.863C10.0586 147.746 7.08984 148.801 4.51172 151.027C1.97266 153.254 0.566406 156.086 0.292969 159.523H0V132.16H99.6094ZM92.0508 233H73.5352V182.727C73.5352 179.445 72.2266 177.805 69.6094 177.805C67.0312 177.805 65.7422 179.484 65.7422 182.844V227.199C65.7422 229.777 66.8555 231.555 69.082 232.531V233H49.5703V152.668C49.5703 149.582 48.4375 147.98 46.1719 147.863V147.395L65.7422 132.16V169.66C68.9844 166.379 73.0273 164.738 77.8711 164.738C81.0742 164.777 83.6523 165.754 85.6055 167.668C87.5977 169.582 88.5938 172.258 88.5938 175.695V227.551C88.5938 230.012 89.7461 231.672 92.0508 232.531V233ZM134.004 218.586C133.965 228.195 130.059 233 122.285 233H102.832C97.4414 233 94.7461 230.363 94.7461 225.09V173.176C94.7461 170.832 95.5859 168.977 97.2656 167.609C98.9453 166.242 100.977 165.559 103.359 165.559H126.035C128.105 165.559 129.824 166.184 131.191 167.434C132.676 168.84 133.418 170.676 133.418 172.941V187.531C133.418 190.695 131.914 193.527 128.906 196.027L115.84 206.867C112.871 209.328 111.406 211.633 111.445 213.781C111.523 217.023 113.945 218.645 118.711 218.645H123.105C128.223 218.645 131.504 216.75 132.949 212.961L133.477 212.902C133.867 214.387 134.043 216.281 134.004 218.586ZM117.305 182.434V181.496C117.305 178.488 116.23 177.023 114.082 177.102C111.855 177.18 110.742 178.82 110.742 182.023V192.57L114.492 189.406C116.367 187.883 117.305 185.559 117.305 182.434Z" fill="white"/>
<path d="M409.023 47.9004L359.072 87.1582H237.637V271.729C237.637 278.369 239.443 284.375 243.057 289.746C246.377 294.629 250.234 297.803 254.629 299.268V300H176.553V299.268C187.881 294.775 193.545 285.547 193.545 271.582V87.1582C185.146 86.8652 177.725 89.502 171.279 95.0684C164.932 100.635 161.416 107.715 160.732 116.309H160V47.9004H409.023ZM324.502 110.449C324.502 116.504 322.451 121.68 318.35 125.977C314.346 130.273 309.463 132.422 303.701 132.422C297.939 132.422 293.008 130.273 288.906 125.977C284.805 121.68 282.754 116.504 282.754 110.449C282.754 104.395 284.805 99.2187 288.906 94.9219C293.008 90.625 297.939 88.4766 303.701 88.4766C309.463 88.4766 314.346 90.625 318.35 94.9219C322.451 99.2187 324.502 104.395 324.502 110.449ZM331.533 300H283.047V178.418C283.047 170.605 280.215 166.602 274.551 166.406V164.795L323.477 126.416V288.867C323.477 294.238 326.162 297.363 331.533 298.242V300ZM449.307 300H403.018V174.316C403.018 166.113 399.746 162.012 393.203 162.012C386.758 162.012 383.535 166.211 383.535 174.609V287.842C383.535 293.896 386.221 297.363 391.592 298.242V300H343.105V177.246C343.105 169.531 340.273 165.527 334.609 165.234V163.916L383.535 124.951V141.65C391.25 133.545 401.406 129.492 414.004 129.492C431.777 129.59 440.664 138.33 440.664 155.713V286.377C440.664 292.529 443.545 296.68 449.307 298.828V300ZM519.033 131.396L511.709 163.184H502.188V288.867C502.188 294.238 504.873 297.363 510.244 298.242V300H461.758V99.1699C461.758 91.3574 458.926 87.3535 453.262 87.1582V85.9863L502.188 47.9004V131.396H519.033ZM835.586 47.9004L785.635 87.1582H641.055C630.996 87.1582 625.967 91.3574 625.967 99.7559V126.27C625.967 130.957 627.578 134.863 630.801 137.988L662.295 169.189C667.471 174.365 670.059 181.396 670.059 190.283V270.264C670.059 290.869 655.41 301.172 626.113 301.172C596.719 301.172 582.021 290.869 582.021 270.264V212.402H582.9C584.756 222.754 586.611 229.834 588.467 233.643C592.666 242.529 599.355 246.973 608.535 246.973C620.352 246.973 626.26 242.041 626.26 232.178V211.963C626.26 206.885 623.77 201.904 618.789 197.021L592.861 171.826C587.197 166.26 583.926 161.035 583.047 156.152C582.363 152.734 582.021 147.363 582.021 140.039V78.8086C582.021 66.3086 586.367 57.7148 595.059 53.0273C601.406 49.6094 611.66 47.9004 625.82 47.9004H835.586ZM790.615 300H744.326V174.316C744.326 166.113 741.055 162.012 734.512 162.012C728.066 162.012 724.844 166.211 724.844 174.609V285.498C724.844 291.943 727.627 296.387 733.193 298.828V300H684.414V99.1699C684.414 91.4551 681.582 87.4512 675.918 87.1582V85.9863L724.844 47.9004V141.65C732.949 133.447 743.057 129.346 755.166 129.346C763.174 129.443 769.619 131.885 774.502 136.67C779.482 141.455 781.973 148.145 781.973 156.738V286.377C781.973 292.529 784.854 296.68 790.615 298.828V300ZM893.008 168.896L892.861 263.965C892.861 281.836 887.344 293.311 876.309 298.389C870.938 300.83 860.439 302.002 844.814 301.904C828.506 301.807 817.959 300.781 813.174 298.828C801.943 293.945 796.328 282.568 796.328 264.697L796.182 169.043C796.182 152.344 801.309 140.967 811.562 134.912C818.496 130.811 829.58 128.76 844.814 128.76C860.928 128.76 872.109 130.566 878.359 134.18C888.125 139.844 893.008 151.416 893.008 168.896ZM852.139 250.928V185.01C852.139 177.979 849.746 174.365 844.961 174.17C839.688 173.975 837.051 177.588 837.051 185.01V250.928C837.051 256.104 839.639 258.691 844.814 258.691C849.697 258.691 852.139 256.104 852.139 250.928ZM1004.78 266.602C1004.78 277.148 1001.8 285.693 995.84 292.236C989.883 298.682 982.314 302.1 973.135 302.49C962.686 302.979 954.824 299.023 949.551 290.625V327.832L901.064 368.408V365.771C906.436 360.596 909.121 354.053 909.121 346.143V177.1C909.121 169.287 906.289 165.283 900.625 165.088V163.77L949.551 125.244V141.943C956.484 133.545 966.25 129.346 978.848 129.346C996.133 129.346 1004.78 140.674 1004.78 163.33V266.602ZM962.588 248.73V175.195C962.588 172.363 961.172 170.947 958.34 170.947H956.436C953.604 170.947 952.188 172.363 952.188 175.195V248.73C952.188 251.562 953.604 252.979 956.436 252.979H958.34C961.172 252.979 962.588 251.562 962.588 248.73Z" fill="white"/>
<line x1="8" y1="252.5" x2="129.004" y2="252.5" stroke="#EE0000" stroke-width="5"/>
<line x1="99" y1="141.5" x2="129" y2="141.5" stroke="#EE0000" stroke-width="5"/>
</svg>
