<svg width="505" height="260" viewBox="0 0 505 260" fill="none" xmlns="http://www.w3.org/2000/svg">
<path d="M214.361 98.62C212.307 98.62 210.254 98.1433 208.201 97.19C206.221 96.2367 204.351 94.8433 202.591 93.01C200.024 90.37 197.787 87.2167 195.881 83.55C194.047 79.81 192.471 75.9967 191.151 72.11C189.831 68.15 188.804 64.5567 188.071 61.33C187.337 58.03 186.824 55.5 186.531 53.74C183.817 58.9467 180.994 64.1167 178.061 69.25C175.201 74.31 171.534 79.2967 167.061 84.21C162.807 88.83 158.151 92.3133 153.091 94.66C148.031 97.08 142.787 98.29 137.361 98.29C135.674 98.29 133.951 98.18 132.191 97.96C127.351 97.3733 123.794 95.98 121.521 93.78C119.247 91.58 118.111 89.2333 118.111 86.74C118.111 84.0267 119.321 81.57 121.741 79.37C124.161 77.17 127.607 76.07 132.081 76.07C133.547 76.07 135.124 76.2167 136.811 76.51C138.497 76.8033 140.257 77.28 142.091 77.94C142.897 78.2333 143.301 78.5633 143.301 78.93C143.301 79.2233 143.007 79.37 142.421 79.37C142.054 79.37 141.761 79.3333 141.541 79.26C139.121 78.38 136.957 77.94 135.051 77.94C131.971 77.94 129.624 78.8567 128.011 80.69C126.397 82.45 125.591 84.3933 125.591 86.52C125.591 88.5733 126.471 90.48 128.231 92.24C129.991 94 132.704 94.88 136.371 94.88C140.991 94.88 145.244 93.8167 149.131 91.69C153.017 89.49 156.647 86.52 160.021 82.78C163.394 78.9667 166.621 74.6767 169.701 69.91C172.781 65.07 175.787 60.0467 178.721 54.84C183.634 46.1133 188.071 38.1933 192.031 31.08C196.064 23.8933 200.317 17.8067 204.791 12.82C202.811 12.6 200.794 12.4533 198.741 12.38C196.687 12.3067 194.597 12.27 192.471 12.27C187.851 12.27 183.047 12.5267 178.061 13.04C173.147 13.48 168.381 14.2133 163.761 15.24C157.527 16.56 152.174 18.54 147.701 21.18C143.227 23.7467 139.671 26.6433 137.031 29.87C134.464 33.0233 132.851 36.2133 132.191 39.44C131.971 40.6133 131.861 41.75 131.861 42.85C131.861 46.59 133.107 49.4867 135.601 51.54C138.094 53.5933 140.954 54.62 144.181 54.62C146.234 54.62 148.287 54.2167 150.341 53.41C152.467 52.53 154.374 51.1733 156.061 49.34C157.454 47.8733 158.481 46.5167 159.141 45.27C159.801 43.95 160.167 42.96 160.241 42.3C160.314 41.2733 160.534 40.76 160.901 40.76C161.121 40.76 161.304 40.9433 161.451 41.31C161.671 41.6767 161.744 42.0433 161.671 42.41C161.377 44.0967 160.864 45.7467 160.131 47.36C159.397 48.9733 158.517 50.33 157.491 51.43C155.437 53.5567 153.091 55.1333 150.451 56.16C147.811 57.1867 145.281 57.7 142.861 57.7C140.001 57.7 137.287 57.0767 134.721 55.83C132.227 54.5833 130.211 52.7867 128.671 50.44C127.131 48.02 126.361 45.05 126.361 41.53C126.361 37.4233 127.791 33.2433 130.651 28.99C133.511 24.6633 137.801 20.85 143.521 17.55C149.314 14.25 156.501 11.9767 165.081 10.73C169.407 10.1433 173.587 9.70333 177.621 9.40999C181.727 9.04333 185.687 8.85999 189.501 8.85999C192.581 8.85999 195.587 8.97 198.521 9.19C201.454 9.41 204.351 9.70333 207.211 10.07C209.117 8.09 210.401 7.1 211.061 7.1C211.574 7.1 211.831 7.50333 211.831 8.31C211.831 8.60333 211.794 8.97 211.721 9.40999C211.647 9.85 211.537 10.29 211.391 10.73C213.371 11.0233 215.277 11.3533 217.111 11.72C219.017 12.0133 220.704 12.38 222.171 12.82C227.964 14.4333 232.181 16.56 234.821 19.2C237.534 21.7667 238.891 24.5533 238.891 27.56C238.891 30.7867 237.424 34.0133 234.491 37.24C231.631 40.4667 227.561 43.3267 222.281 45.82C217.074 48.3133 210.951 50.1467 203.911 51.32C201.637 51.6867 199.621 51.9433 197.861 52.09C196.174 52.2367 194.707 52.3467 193.461 52.42C193.607 53.1533 193.937 54.6933 194.451 57.04C194.964 59.3867 195.697 62.1733 196.651 65.4C197.604 68.5533 198.814 71.89 200.281 75.41C201.821 78.93 203.654 82.2667 205.781 85.42C207.467 87.9133 209.191 89.9667 210.951 91.58C212.711 93.1933 214.581 94 216.561 94C217.807 94 219.091 93.67 220.411 93.01C221.804 92.35 223.234 91.2867 224.701 89.82C226.461 88.06 228.037 86.08 229.431 83.88C230.897 81.6067 232.144 79.48 233.171 77.5C234.197 75.52 234.894 74.1267 235.261 73.32C235.847 72.2933 236.471 71.78 237.131 71.78C237.351 71.78 237.461 71.9267 237.461 72.22C237.461 72.3667 237.351 72.7333 237.131 73.32C236.764 74.1267 236.214 75.3733 235.481 77.06C234.747 78.6733 233.867 80.47 232.841 82.45C231.814 84.43 230.714 86.3733 229.541 88.28C228.367 90.1867 227.194 91.8 226.021 93.12C224.334 94.9533 222.427 96.31 220.301 97.19C218.247 98.1433 216.267 98.62 214.361 98.62ZM188.841 49.45C190.967 49.0833 193.241 48.8267 195.661 48.68C198.081 48.5333 200.464 48.3133 202.811 48.02C206.624 47.5067 210.217 46.5167 213.591 45.05C216.964 43.51 219.934 41.6767 222.501 39.55C225.141 37.4233 227.194 35.1867 228.661 32.84C230.127 30.42 230.861 28.11 230.861 25.91C230.861 20.9233 227.524 17.4767 220.851 15.57C219.531 15.2033 217.807 14.8367 215.681 14.47C213.627 14.1033 211.757 13.7733 210.071 13.48C206.551 19.4933 202.921 25.3967 199.181 31.19C195.514 36.9833 192.067 43.07 188.841 49.45ZM259.163 94.33C258.356 94.4033 257.44 94.22 256.413 93.78C255.386 93.34 254.47 92.5333 253.663 91.36C252.93 90.1867 252.563 88.5367 252.563 86.41C252.563 84.65 252.893 82.5233 253.553 80.03C252.673 81.4233 251.536 83.1467 250.143 85.2C248.75 87.18 247.246 88.94 245.633 90.48C244.24 91.8 242.92 92.7533 241.673 93.34C240.426 93.9267 239.29 94.22 238.263 94.22C236.356 94.22 234.816 93.3767 233.643 91.69C232.47 89.93 231.883 87.6567 231.883 84.87C231.883 81.9367 232.616 78.6 234.083 74.86C235.55 71.12 237.933 67.2333 241.233 63.2C243.36 60.6333 245.926 58.58 248.933 57.04C252.013 55.4267 255.02 54.62 257.953 54.62C259.64 54.62 261.253 54.9133 262.793 55.5C264.333 56.0133 265.69 56.8933 266.863 58.14C267.376 58.6533 267.633 59.24 267.633 59.9C267.633 60.34 267.45 60.7067 267.083 61C266.716 61.2933 266.24 61.3667 265.653 61.22C264.847 58.6533 263.123 57.37 260.483 57.37C259.236 57.37 257.806 57.7733 256.193 58.58C253.7 59.9 251.096 62.0633 248.383 65.07C245.743 68.0767 243.433 71.1933 241.453 74.42C241.16 74.86 240.683 75.7033 240.023 76.95C239.436 78.1967 238.85 79.59 238.263 81.13C237.676 82.67 237.273 84.1733 237.053 85.64C236.98 86.08 236.943 86.41 236.943 86.63C236.943 86.7767 236.943 87.0333 236.943 87.4C236.943 89.82 237.86 91.03 239.693 91.03C241.893 91.03 244.386 89.4167 247.173 86.19C249.08 83.8433 250.803 81.3867 252.343 78.82C253.883 76.2533 255.46 73.5033 257.073 70.57C258.173 68.59 259.2 66.94 260.153 65.62C261.106 64.3 262.463 63.64 264.223 63.64C265.03 63.64 265.836 63.75 266.643 63.97C267.45 64.19 268.293 64.2267 269.173 64.08C268.586 64.6667 267.78 65.7667 266.753 67.38C265.8 68.9933 264.773 70.8267 263.673 72.88C262.573 74.9333 261.583 77.0233 260.703 79.15C259.823 81.2767 259.2 83.11 258.833 84.65C258.76 85.09 258.65 85.7133 258.503 86.52C258.43 87.3267 258.393 87.9133 258.393 88.28C258.393 90.3333 258.98 91.36 260.153 91.36C261.326 91.36 262.573 90.6633 263.893 89.27C265.286 87.8767 266.643 86.1533 267.963 84.1C269.283 82.0467 270.493 79.9933 271.593 77.94C272.693 75.8133 273.573 74.09 274.233 72.77C274.526 72.0367 274.966 71.67 275.553 71.67C275.92 71.67 276.103 71.9267 276.103 72.44C276.103 72.66 275.993 73.0633 275.773 73.65C274.893 75.4833 273.83 77.5733 272.583 79.92C271.336 82.1933 269.98 84.43 268.513 86.63C267.046 88.7567 265.506 90.5533 263.893 92.02C262.353 93.4133 260.776 94.1833 259.163 94.33ZM263.735 94.55C266.448 89.3433 269.015 84.1367 271.435 78.93C273.855 73.65 276.312 68.6633 278.805 63.97C280.272 61.33 281.482 59.4967 282.435 58.47C283.462 57.37 284.818 56.82 286.505 56.82C287.092 56.82 287.715 56.93 288.375 57.15C289.035 57.2967 289.695 57.37 290.355 57.37C290.795 57.37 291.125 57.3333 291.345 57.26C290.318 57.8467 288.998 59.3133 287.385 61.66C285.772 63.9333 284.122 66.5733 282.435 69.58C280.748 72.5867 279.245 75.41 277.925 78.05C279.318 76.3633 280.748 74.6767 282.215 72.99C283.755 71.3033 285.442 69.69 287.275 68.15C288.888 66.7567 290.575 65.2533 292.335 63.64C294.168 61.9533 295.965 60.5233 297.725 59.35C299.485 58.1767 301.025 57.59 302.345 57.59C302.858 57.59 303.188 57.6267 303.335 57.7C304.728 58.2867 305.425 59.24 305.425 60.56C305.425 61 305.242 61.66 304.875 62.54C303.922 65.0333 302.675 67.6 301.135 70.24C299.668 72.8067 298.275 75.41 296.955 78.05C298.055 76.73 299.412 75.1167 301.025 73.21C302.712 71.3033 304.398 69.6167 306.085 68.15C307.698 66.6833 309.752 65.1433 312.245 63.53C314.738 61.9167 317.195 60.5233 319.615 59.35C322.035 58.1767 323.978 57.59 325.445 57.59C325.958 57.59 326.325 57.6267 326.545 57.7C326.545 57.7 326.142 58.4333 325.335 59.9C324.528 61.2933 323.502 63.1633 322.255 65.51C321.082 67.7833 319.872 70.24 318.625 72.88C317.378 75.4467 316.242 77.94 315.215 80.36C314.262 82.7067 313.638 84.6867 313.345 86.3C313.125 87.2533 313.015 88.1333 313.015 88.94C313.015 90.1133 313.235 90.8833 313.675 91.25C314.115 91.6167 314.592 91.8 315.105 91.8C316.572 91.8 318.075 91.03 319.615 89.49C321.155 87.95 322.622 86.1167 324.015 83.99C325.482 81.79 326.765 79.6633 327.865 77.61C328.965 75.4833 329.772 73.87 330.285 72.77C330.725 71.9633 331.165 71.56 331.605 71.56C332.045 71.56 332.265 71.8533 332.265 72.44C332.265 72.8067 332.155 73.21 331.935 73.65C331.055 75.3367 329.992 77.3533 328.745 79.7C327.572 82.0467 326.215 84.3567 324.675 86.63C323.135 88.83 321.412 90.7 319.505 92.24C317.672 93.7067 315.692 94.44 313.565 94.44C312.025 94.44 310.448 93.9267 308.835 92.9C307.295 91.8733 306.525 89.9667 306.525 87.18C306.525 85.64 306.855 83.77 307.515 81.57C308.028 80.1033 308.798 78.4167 309.825 76.51C310.925 74.6033 312.245 72.4033 313.785 69.91C314.518 68.6633 314.885 67.6733 314.885 66.94C314.885 66.06 314.445 65.62 313.565 65.62C312.832 65.62 311.805 65.9867 310.485 66.72C309.238 67.4533 307.662 68.7367 305.755 70.57C304.582 71.67 303.188 73.21 301.575 75.19C300.035 77.0967 298.458 79.1867 296.845 81.46C295.232 83.7333 293.838 85.97 292.665 88.17C291.492 90.37 290.722 92.3133 290.355 94C289.255 94 288.375 93.56 287.715 92.68C287.055 91.7267 286.725 90.6267 286.725 89.38C286.725 89.16 286.725 88.94 286.725 88.72C286.725 88.5 286.762 88.2433 286.835 87.95C287.202 85.6767 287.788 83.55 288.595 81.57C289.402 79.59 290.318 77.5367 291.345 75.41C292.152 73.87 292.958 72.22 293.765 70.46C294.572 68.6267 294.975 67.2333 294.975 66.28C294.975 65.6933 294.755 65.4 294.315 65.4C293.802 65.4 292.958 65.8033 291.785 66.61C290.612 67.3433 288.998 68.6633 286.945 70.57C285.112 72.33 282.875 74.86 280.235 78.16C277.668 81.46 274.845 86.1533 271.765 92.24C271.325 93.0467 270.812 93.56 270.225 93.78C269.638 93.9267 268.722 94 267.475 94C266.668 94 266.008 94 265.495 94C264.908 94.0733 264.322 94.2567 263.735 94.55ZM335.322 94C332.535 94 330.482 93.0833 329.162 91.25C327.842 89.3433 327.182 87.0333 327.182 84.32C327.182 81.02 327.952 77.5733 329.492 73.98C330.959 70.6067 332.829 67.5267 335.102 64.74C337.375 61.9533 339.832 59.7167 342.472 58.03C345.112 56.27 347.679 55.39 350.172 55.39C352.959 55.39 355.012 56.3067 356.332 58.14C357.652 59.9733 358.312 62.2833 358.312 65.07C358.312 68.4433 357.542 71.89 356.002 75.41C355.122 77.39 353.875 79.59 352.262 82.01C350.649 84.3567 348.815 86.52 346.762 88.5C347.202 89.3067 347.825 90.0033 348.632 90.59C349.439 91.1033 350.539 91.36 351.932 91.36C353.692 91.36 355.342 90.6267 356.882 89.16C358.495 87.6933 359.962 85.9333 361.282 83.88C362.602 81.7533 363.775 79.6267 364.802 77.5C365.829 75.3733 366.672 73.65 367.332 72.33C367.552 71.89 367.919 71.67 368.432 71.67C368.725 71.67 368.945 71.8167 369.092 72.11C369.239 72.33 369.202 72.6967 368.982 73.21C368.542 74.31 367.809 75.96 366.782 78.16C365.755 80.2867 364.509 82.5233 363.042 84.87C361.575 87.1433 359.889 89.0867 357.982 90.7C356.075 92.3133 353.949 93.12 351.602 93.12C349.989 93.12 348.595 92.8633 347.422 92.35C346.249 91.7633 345.295 91.0667 344.562 90.26C343.022 91.4333 341.482 92.35 339.942 93.01C338.402 93.67 336.862 94 335.322 94ZM336.972 91.58C338.952 91.58 341.079 90.6267 343.352 88.72C342.765 87.84 342.325 86.9233 342.032 85.97C341.739 85.0167 341.592 84.1367 341.592 83.33C341.592 82.01 341.885 80.8733 342.472 79.92C343.132 78.9667 344.122 78.49 345.442 78.49C346.395 78.49 347.165 78.8567 347.752 79.59C348.412 80.25 348.742 81.02 348.742 81.9C348.742 82.12 348.705 82.34 348.632 82.56C348.632 82.7067 348.595 82.89 348.522 83.11C349.769 81.4233 350.942 79.4433 352.042 77.17C354.462 71.9633 355.672 67.6733 355.672 64.3C355.672 62.6133 355.342 61.2933 354.682 60.34C354.022 59.3867 353.032 58.91 351.712 58.91C350.172 58.91 348.485 59.57 346.652 60.89C344.892 62.21 343.169 63.97 341.482 66.17C339.869 68.37 338.439 70.8267 337.192 73.54C336.019 76.0333 335.065 78.4533 334.332 80.8C333.672 83.0733 333.342 85.0533 333.342 86.74C333.342 88.2067 333.635 89.38 334.222 90.26C334.809 91.14 335.725 91.58 336.972 91.58ZM369.418 94.44C365.824 94.44 363.258 93.5233 361.718 91.69C360.251 89.7833 359.518 87.8033 359.518 85.75C359.518 84.0633 359.921 82.5233 360.728 81.13C361.608 79.7367 362.634 79.0033 363.808 78.93C365.274 76.07 366.851 72.9533 368.538 69.58C370.298 66.2067 371.911 62.9433 373.378 59.79C374.404 57.6633 375.688 55.61 377.228 53.63C378.841 51.65 380.601 50.5133 382.508 50.22H383.608C384.194 50.22 384.708 50.2567 385.148 50.33C385.661 50.4033 386.174 50.55 386.688 50.77C387.494 51.1367 387.898 51.6867 387.898 52.42C387.898 52.86 387.641 53.08 387.128 53.08C386.908 53.08 386.614 52.97 386.248 52.75C385.368 52.3833 384.598 52.2 383.938 52.2C383.498 52.2 383.094 52.31 382.728 52.53C381.334 53.2633 380.344 54.29 379.758 55.61C379.244 56.93 378.988 58.3233 378.988 59.79C378.988 60.9633 379.098 62.1733 379.318 63.42C379.611 64.5933 379.941 65.6567 380.308 66.61C381.114 68.6633 381.958 70.68 382.838 72.66C383.791 74.64 384.268 76.7667 384.268 79.04C384.268 81.24 383.534 83.5867 382.068 86.08C380.601 88.5 378.731 90.4433 376.458 91.91L377.228 92.02C377.594 92.0933 377.851 92.13 377.998 92.13C378.144 92.13 378.254 92.13 378.328 92.13C380.014 92.13 381.591 91.6533 383.058 90.7C384.598 89.6733 385.954 88.4267 387.128 86.96C388.301 85.4933 389.621 83.44 391.088 80.8C392.628 78.16 394.094 75.3733 395.488 72.44C395.708 72.0733 395.964 71.89 396.258 71.89C396.624 71.89 396.881 72.0367 397.028 72.33C397.248 72.55 397.284 72.8433 397.138 73.21C396.184 75.2633 395.084 77.5 393.838 79.92C392.664 82.2667 391.308 84.54 389.768 86.74C388.228 88.8667 386.431 90.6267 384.378 92.02C382.398 93.34 380.161 94 377.668 94C377.081 94 376.458 93.9633 375.798 93.89C375.138 93.8167 374.478 93.67 373.818 93.45C373.084 93.7433 372.314 93.9633 371.508 94.11C370.774 94.33 370.078 94.44 369.418 94.44ZM372.718 91.14C373.964 90.1133 375.064 88.61 376.018 86.63C377.044 84.65 377.558 82.0467 377.558 78.82C377.558 75.96 377.264 72.9167 376.678 69.69C376.091 66.4633 375.798 63.6033 375.798 61.11C375.798 60.5967 375.798 60.1567 375.798 59.79C375.871 59.35 375.944 58.9467 376.018 58.58C375.064 60.56 373.964 62.87 372.718 65.51C371.471 68.0767 370.224 70.57 368.978 72.99C367.731 75.41 366.668 77.4633 365.788 79.15C365.788 79.15 365.971 79.1867 366.338 79.26C366.778 79.26 367.181 79.5167 367.548 80.03C367.914 80.47 368.061 81.3867 367.988 82.78C367.914 84.6133 368.318 86.3367 369.198 87.95C370.151 89.49 371.324 90.5533 372.718 91.14ZM368.538 92.68C368.978 92.68 369.381 92.6433 369.748 92.57C370.114 92.4233 370.444 92.3133 370.738 92.24C369.638 91.4333 368.648 90.37 367.768 89.05C366.961 87.6567 366.484 85.8967 366.338 83.77C365.018 85.1633 364.358 86.6667 364.358 88.28C364.358 89.4533 364.724 90.48 365.458 91.36C366.191 92.24 367.218 92.68 368.538 92.68Z" fill="#FED2A8"/>
<path d="M52.9715 194.992C51.0942 194.992 49.1742 194.864 47.2115 194.608C41.8355 193.925 37.8675 192.347 35.3075 189.872C32.8328 187.397 31.5955 184.709 31.5955 181.808C31.5955 178.651 33.0035 175.792 35.8195 173.232C38.6355 170.587 42.6035 169.264 47.7235 169.264C51.1368 169.264 54.8488 169.947 58.8595 171.312C61.0782 172.08 63.7235 173.36 66.7955 175.152C69.8675 176.944 73.4088 178.821 77.4195 180.784C81.6862 176.688 85.5688 171.611 89.0675 165.552C92.6515 159.493 96.1928 153.008 99.6915 146.096C103.276 139.099 107.116 132.101 111.212 125.104C115.393 118.107 120.214 111.536 125.676 105.392L133.1 97.072C129.942 96.56 126.657 96.176 123.244 95.92C119.83 95.5787 116.289 95.408 112.62 95.408C108.012 95.408 103.276 95.664 98.4115 96.176C93.5475 96.6027 88.6835 97.328 83.8195 98.352C75.7982 100.059 69.0142 102.789 63.4675 106.544C57.9208 110.299 53.6968 114.395 50.7955 118.832C47.9795 123.184 46.5715 127.28 46.5715 131.12C46.5715 133.765 47.2968 136.155 48.7475 138.288C50.2835 140.336 52.5448 141.829 55.5315 142.768C57.4088 143.365 59.3288 143.664 61.2915 143.664C64.1928 143.664 66.7528 143.067 68.9715 141.872C71.1902 140.677 73.0675 139.227 74.6035 137.52C76.1395 135.728 77.2488 134.021 77.9315 132.4C78.6995 130.779 79.0408 129.584 78.9555 128.816C78.9555 128.219 79.3822 127.92 80.2355 127.92C81.0888 127.92 81.5155 128.56 81.5155 129.84V129.968C81.5155 133.467 80.4488 136.496 78.3155 139.056C76.1822 141.616 73.4942 143.579 70.2515 144.944C67.0942 146.309 63.8942 146.992 60.6515 146.992C58.6035 146.992 56.4702 146.651 54.2515 145.968C49.6435 144.347 46.2302 142 44.0115 138.928C41.7928 135.771 40.6835 132.315 40.6835 128.56C40.6835 125.061 41.6222 121.477 43.4995 117.808C45.4622 114.053 48.3208 110.512 52.0755 107.184C55.8302 103.771 60.4808 100.827 66.0275 98.352C71.6595 95.8773 78.1448 94.128 85.4835 93.104C89.4088 92.5067 93.2915 92.08 97.1315 91.824C100.972 91.568 104.684 91.44 108.268 91.44C113.217 91.44 118.038 91.696 122.732 92.208C127.51 92.6347 131.99 93.3173 136.172 94.256C137.366 93.232 138.561 92.336 139.756 91.568C141.036 90.8 142.188 90.2027 143.212 89.776C143.809 89.52 144.321 89.3493 144.748 89.264C145.174 89.1787 145.516 89.136 145.772 89.136C146.284 89.136 146.54 89.3067 146.54 89.648C146.54 90.0747 145.9 90.7573 144.62 91.696C143.766 92.2933 142.956 92.976 142.188 93.744C141.42 94.4267 140.95 94.9387 140.78 95.28C149.484 97.4987 156.524 100.571 161.9 104.496C167.361 108.336 170.092 112.901 170.092 118.192C170.092 120.923 169.196 123.909 167.404 127.152C165.526 130.309 162.924 132.869 159.596 134.832C156.268 136.709 152.726 138.117 148.972 139.056C145.217 139.909 141.718 140.421 138.476 140.592C141.292 141.445 144.364 142.725 147.692 144.432C151.105 146.053 154.22 148.059 157.036 150.448C159.937 152.837 161.857 155.653 162.796 158.896C163.393 160.944 163.692 163.035 163.692 165.168C163.692 169.691 162.369 173.787 159.724 177.456C157.164 181.125 153.708 184.283 149.356 186.928C145.089 189.488 140.396 191.451 135.276 192.816C130.156 194.267 125.078 194.992 120.044 194.992C118.166 194.992 116.246 194.864 114.284 194.608C106.092 193.584 99.3075 192.304 93.9315 190.768C88.6408 189.232 83.9902 187.525 79.9795 185.648C71.7022 191.877 62.6995 194.992 52.9715 194.992ZM118.252 191.28C123.542 191.28 128.364 190.469 132.716 188.848C137.068 187.227 140.822 185.093 143.98 182.448C147.222 179.803 149.697 176.859 151.404 173.616C153.196 170.373 154.092 167.173 154.092 164.016C154.092 161.029 153.196 158.128 151.404 155.312C149.612 152.496 146.796 150.149 142.956 148.272C139.628 146.651 136.172 145.328 132.588 144.304C129.089 143.195 126.06 142.256 123.5 141.488C120.94 140.635 119.446 139.781 119.02 138.928C119.02 137.904 119.446 137.221 120.3 136.88C121.238 136.453 122.433 136.24 123.884 136.24C125.59 136.24 127.638 136.368 130.028 136.624C132.417 136.88 134.934 137.008 137.58 137.008C140.31 137.008 143.084 136.411 145.9 135.216C148.801 133.936 151.446 132.272 153.836 130.224C156.225 128.091 158.145 125.787 159.596 123.312C161.132 120.752 161.9 118.149 161.9 115.504C161.9 113.115 161.089 110.768 159.467 108.464C157.846 106.16 155.158 104.155 151.404 102.448C147.649 100.741 143.596 99.376 139.244 98.352C134.977 104.24 130.71 110.853 126.444 118.192C122.177 125.445 117.91 132.827 113.644 140.336C109.377 147.76 105.068 154.8 100.715 161.456C96.3635 168.112 92.0115 173.829 87.6595 178.608C86.6355 179.717 85.8248 180.571 85.2275 181.168C84.6302 181.68 83.8195 182.405 82.7955 183.344C86.8062 184.965 91.3715 186.501 96.4915 187.952C101.612 189.403 107.457 190.427 114.028 191.024C114.71 191.109 115.393 191.152 116.076 191.152C116.844 191.237 117.569 191.28 118.252 191.28ZM50.4115 191.024C55.1902 191.28 59.5422 190.725 63.4675 189.36C67.4782 187.909 71.1902 185.904 74.6035 183.344C71.6168 181.893 68.5448 180.4 65.3875 178.864C62.3155 177.243 59.0302 175.792 55.5315 174.512C53.0568 173.659 50.7955 173.232 48.7475 173.232C45.5902 173.232 43.2008 174.085 41.5795 175.792C39.9582 177.413 39.1475 179.291 39.1475 181.424C39.1475 183.643 40.0862 185.776 41.9635 187.824C43.8408 189.787 46.6568 190.853 50.4115 191.024ZM175.452 190C174.513 190 173.361 189.787 171.996 189.36C170.716 188.933 169.564 188.165 168.54 187.056C167.601 185.861 167.132 184.112 167.132 181.808C167.132 179.589 167.644 177.456 168.668 175.408C169.777 173.275 170.801 171.227 171.74 169.264C171.484 169.264 171.185 169.179 170.844 169.008C170.588 168.837 170.46 168.581 170.46 168.24C170.46 167.899 170.545 167.557 170.716 167.216C171.057 166.533 171.441 165.808 171.868 165.04C172.294 164.272 172.678 163.461 173.02 162.608C174.3 159.963 175.58 157.445 176.86 155.056C178.14 152.581 179.249 150.405 180.188 148.528C181.126 146.651 182.748 145.712 185.052 145.712H192.988C191.537 146.821 190.214 148.059 189.02 149.424C187.91 150.704 186.502 153.093 184.796 156.592C184.796 156.592 184.497 157.189 183.9 158.384C183.302 159.579 182.534 161.115 181.596 162.992C180.742 164.784 179.846 166.619 178.908 168.496C178.054 170.373 177.329 171.952 176.732 173.232C175.622 175.621 174.897 177.541 174.556 178.992C174.214 180.357 174.044 181.637 174.044 182.832C174.044 185.648 174.982 187.056 176.86 187.056C178.908 187.056 181.382 185.392 184.284 182.064C186.673 179.248 189.02 175.877 191.324 171.952C193.628 168.027 195.804 163.973 197.852 159.792C199.985 155.611 201.862 151.856 203.484 148.528C204.422 146.651 206.086 145.712 208.476 145.712H215.516C214.236 146.736 213.169 147.717 212.316 148.656C211.462 149.509 210.609 150.704 209.756 152.24C208.988 153.691 207.921 155.781 206.556 158.512C205.446 160.816 204.252 163.291 202.972 165.936C201.777 168.496 200.71 170.928 199.772 173.232C198.833 175.536 198.236 177.413 197.979 178.864C197.894 179.717 197.809 180.357 197.724 180.784C197.638 181.211 197.596 181.68 197.596 182.192C197.596 183.813 197.852 184.965 198.364 185.648C198.961 186.331 199.644 186.672 200.412 186.672C202.46 186.672 204.508 185.52 206.556 183.216C208.689 180.912 210.694 178.096 212.572 174.768C214.534 171.44 216.198 168.283 217.564 165.296C218.076 164.357 218.545 163.888 218.972 163.888C219.484 163.888 219.74 164.187 219.74 164.784C219.74 165.211 219.569 165.723 219.228 166.32C218.289 168.368 217.137 170.715 215.772 173.36C214.406 176.005 212.87 178.608 211.164 181.168C209.457 183.728 207.58 185.861 205.532 187.568C203.484 189.189 201.265 190 198.876 190C196.742 190 194.993 189.232 193.628 187.696C192.262 186.075 191.58 183.813 191.58 180.912C191.58 178.608 192.006 176.133 192.86 173.488C191.409 176.048 189.745 178.608 187.868 181.168C185.99 183.728 183.985 185.861 181.852 187.568C179.718 189.189 177.585 190 175.452 190ZM227.98 190.512C223.116 190.512 219.702 189.36 217.74 187.056C215.777 184.667 214.796 181.765 214.796 178.352C214.796 174.597 215.649 170.587 217.356 166.32C219.148 162.053 221.238 158.341 223.628 155.184C226.102 151.856 228.833 149.296 231.82 147.504C234.806 145.627 237.836 144.688 240.908 144.688C244.15 144.688 246.54 145.499 248.076 147.12C249.612 148.741 250.209 150.917 249.868 153.648C249.697 155.355 248.886 157.061 247.436 158.768C245.985 160.389 244.534 161.2 243.083 161.2C242.401 161.2 241.804 160.944 241.292 160.432C241.974 159.579 242.7 158.555 243.468 157.36C244.236 156.165 244.79 155.013 245.132 153.904C245.473 152.88 245.644 151.856 245.644 150.832C245.644 148.699 244.62 147.632 242.572 147.632C240.268 147.632 237.836 148.827 235.276 151.216C232.801 153.52 230.625 156.037 228.748 158.768C227.98 159.792 227.041 161.413 225.932 163.632C224.908 165.765 223.969 168.155 223.116 170.8C222.262 173.36 221.836 175.877 221.836 178.352C221.836 180.912 222.39 183.216 223.5 185.264C224.694 187.227 226.657 188.208 229.388 188.208C233.142 188.208 236.342 187.056 238.988 184.752C241.718 182.363 244.108 179.419 246.156 175.92C248.289 172.421 250.209 169.008 251.916 165.68C252.428 164.656 252.94 164.144 253.452 164.144C253.878 164.144 254.092 164.485 254.092 165.168C254.092 165.509 253.964 165.936 253.708 166.448C251.66 170.885 249.569 174.939 247.436 178.608C245.302 182.277 242.7 185.179 239.628 187.312C236.641 189.445 232.758 190.512 227.98 190.512ZM238.442 191.024C242.026 183.685 245.739 176.005 249.579 167.984C253.504 159.877 257.515 151.728 261.611 143.536C265.707 135.344 269.76 127.536 273.771 120.112C275.221 117.552 276.544 115.547 277.739 114.096C279.019 112.645 280.683 111.92 282.731 111.92C283.499 111.92 284.395 112.048 285.419 112.304C286.443 112.56 287.424 112.603 288.363 112.432C287.253 113.627 285.717 115.717 283.755 118.704C281.877 121.691 279.744 125.275 277.354 129.456C275.051 133.637 272.576 138.16 269.931 143.024C267.371 147.803 264.811 152.667 262.251 157.616C259.776 162.48 257.472 167.045 255.339 171.312C257.045 169.093 258.795 167.003 260.587 165.04C262.379 163.077 264.128 161.371 265.835 159.92C267.712 158.213 270.059 156.421 272.875 154.544C275.776 152.667 278.635 151.045 281.451 149.68C284.352 148.315 286.656 147.632 288.363 147.632C288.96 147.632 289.387 147.675 289.643 147.76C289.643 147.76 289.173 148.613 288.235 150.32C287.296 152.027 286.101 154.203 284.651 156.848C283.285 159.493 281.835 162.352 280.299 165.424C278.848 168.496 277.568 171.44 276.458 174.256C275.349 176.987 274.624 179.248 274.283 181.04C274.027 182.405 273.899 183.557 273.899 184.496C273.899 185.861 274.155 186.8 274.667 187.312C275.179 187.739 275.733 187.952 276.331 187.952C277.781 187.952 279.36 187.056 281.067 185.264C282.773 183.472 284.437 181.296 286.059 178.736C287.68 176.091 289.131 173.531 290.411 171.056C291.776 168.581 292.8 166.661 293.483 165.296C293.995 164.357 294.507 163.888 295.019 163.888C295.531 163.888 295.787 164.229 295.787 164.912C295.787 165.253 295.659 165.765 295.403 166.448C294.293 168.667 293.013 171.184 291.563 174C290.197 176.731 288.619 179.376 286.827 181.936C285.12 184.411 283.2 186.459 281.067 188.08C279.019 189.701 276.8 190.512 274.411 190.512C272.704 190.512 270.955 189.915 269.163 188.72C267.371 187.525 266.475 185.349 266.475 182.192C266.475 181.253 266.56 180.272 266.731 179.248C266.901 178.139 267.2 176.901 267.627 175.536C268.139 173.829 268.992 171.952 270.187 169.904C271.381 167.771 272.917 165.125 274.795 161.968C275.648 160.517 276.075 159.365 276.075 158.512C276.075 157.488 275.563 156.976 274.539 156.976C273.685 156.976 272.533 157.403 271.083 158.256C269.632 159.109 267.797 160.603 265.579 162.736C263.445 164.784 260.8 167.771 257.643 171.696C254.485 175.621 251.115 181.125 247.531 188.208C246.933 189.317 246.251 189.915 245.483 190C244.8 190 243.861 190.043 242.666 190.128C241.898 190.213 241.13 190.256 240.362 190.256C239.594 190.341 238.954 190.597 238.442 191.024ZM299.625 190C296.382 190 293.992 188.933 292.457 186.8C290.921 184.581 290.153 181.893 290.153 178.736C290.153 174.896 291.049 170.885 292.841 166.704C294.547 162.779 296.723 159.195 299.369 155.952C302.014 152.709 304.873 150.107 307.945 148.144C311.017 146.096 314.003 145.072 316.905 145.072C320.147 145.072 322.537 146.139 324.073 148.272C325.609 150.405 326.377 153.093 326.377 156.336C326.377 160.261 325.481 164.272 323.689 168.368C322.665 170.672 321.214 173.232 319.337 176.048C317.459 178.779 315.326 181.296 312.937 183.6C313.449 184.539 314.174 185.349 315.113 186.032C316.051 186.629 317.331 186.928 318.953 186.928C321.001 186.928 322.921 186.075 324.713 184.368C326.59 182.661 328.297 180.613 329.833 178.224C331.369 175.749 332.734 173.275 333.929 170.8C335.123 168.325 336.105 166.32 336.873 164.784C337.129 164.272 337.555 164.016 338.153 164.016C338.494 164.016 338.75 164.187 338.921 164.528C339.091 164.784 339.049 165.211 338.793 165.808C338.281 167.088 337.427 169.008 336.233 171.568C335.038 174.043 333.587 176.645 331.881 179.376C330.174 182.021 328.211 184.283 325.993 186.16C323.774 188.037 321.299 188.976 318.569 188.976C316.691 188.976 315.07 188.677 313.705 188.08C312.339 187.397 311.23 186.587 310.377 185.648C308.585 187.013 306.793 188.08 305.001 188.848C303.209 189.616 301.417 190 299.625 190ZM301.545 187.184C303.849 187.184 306.323 186.075 308.969 183.856C308.286 182.832 307.774 181.765 307.433 180.656C307.091 179.547 306.921 178.523 306.921 177.584C306.921 176.048 307.262 174.725 307.945 173.616C308.713 172.507 309.865 171.952 311.401 171.952C312.51 171.952 313.406 172.379 314.089 173.232C314.857 174 315.241 174.896 315.241 175.92C315.241 176.176 315.198 176.432 315.113 176.688C315.113 176.859 315.07 177.072 314.985 177.328C316.435 175.365 317.801 173.061 319.081 170.416C321.897 164.357 323.305 159.365 323.305 155.44C323.305 153.477 322.921 151.941 322.153 150.832C321.385 149.723 320.233 149.168 318.697 149.168C316.905 149.168 314.942 149.936 312.809 151.472C310.761 153.008 308.755 155.056 306.793 157.616C304.915 160.176 303.251 163.035 301.801 166.192C300.435 169.093 299.326 171.909 298.473 174.64C297.705 177.285 297.321 179.589 297.321 181.552C297.321 183.259 297.662 184.624 298.345 185.648C299.027 186.672 300.094 187.184 301.545 187.184ZM324.195 191.024C327.267 184.795 330.212 178.651 333.028 172.592C335.929 166.448 338.873 160.603 341.86 155.056C343.566 151.984 344.974 149.851 346.083 148.656C347.278 147.376 348.857 146.736 350.82 146.736C351.502 146.736 352.228 146.864 352.996 147.12C353.764 147.291 354.532 147.376 355.3 147.376C355.812 147.376 356.196 147.333 356.452 147.248C355.257 147.931 353.721 149.637 351.844 152.368C349.966 155.013 348.046 158.085 346.083 161.584C344.121 165.083 342.372 168.368 340.836 171.44C342.457 169.477 344.121 167.515 345.828 165.552C347.62 163.589 349.582 161.712 351.716 159.92C353.764 158.128 356.196 156.293 359.012 154.416C361.913 152.453 364.729 150.832 367.46 149.552C370.19 148.272 372.366 147.632 373.988 147.632C374.585 147.632 375.012 147.675 375.268 147.76C375.268 147.76 374.798 148.613 373.86 150.32C372.921 151.941 371.726 154.117 370.276 156.848C368.91 159.493 367.502 162.352 366.052 165.424C364.601 168.411 363.278 171.312 362.083 174.128C360.974 176.859 360.249 179.163 359.908 181.04C359.652 182.149 359.524 183.173 359.524 184.112C359.524 185.477 359.78 186.373 360.292 186.8C360.804 187.227 361.358 187.44 361.956 187.44C363.577 187.44 365.284 186.587 367.076 184.88C368.868 183.088 370.574 180.912 372.196 178.352C373.902 175.792 375.396 173.317 376.676 170.928C378.041 168.453 379.022 166.576 379.62 165.296C379.961 164.613 380.217 164.229 380.388 164.144C380.558 163.973 380.814 163.888 381.156 163.888C381.668 163.888 381.924 164.229 381.924 164.912C381.924 165.339 381.796 165.808 381.54 166.32C380.516 168.283 379.278 170.629 377.828 173.36C376.462 176.091 374.884 178.779 373.092 181.424C371.3 183.984 369.337 186.16 367.204 187.952C365.07 189.659 362.766 190.512 360.292 190.512C358.585 190.512 356.793 189.915 354.916 188.72C353.124 187.525 352.228 185.307 352.228 182.064C352.228 181.125 352.313 180.144 352.484 179.12C352.654 178.011 352.953 176.816 353.38 175.536C354.062 173.829 354.873 171.995 355.812 170.032C356.75 168.069 358.286 165.381 360.42 161.968C361.017 161.029 361.358 160.304 361.444 159.792C361.614 159.28 361.7 158.853 361.7 158.512C361.7 157.488 361.23 156.976 360.292 156.976C359.524 156.976 358.372 157.403 356.836 158.256C355.385 159.109 353.55 160.603 351.332 162.736C349.198 164.784 346.638 167.685 343.652 171.44C340.75 175.195 337.38 180.741 333.54 188.08C332.942 189.189 332.26 189.787 331.492 189.872C330.809 189.957 329.828 190.043 328.547 190.128C327.694 190.213 326.883 190.256 326.115 190.256C325.348 190.341 324.707 190.597 324.195 191.024ZM388.444 190.512C385.286 190.512 382.428 189.488 379.868 187.44C377.393 185.392 376.156 182.277 376.156 178.096C376.156 174.256 377.094 170.16 378.972 165.808C380.849 161.371 383.238 157.488 386.14 154.16C388.614 151.259 391.388 148.869 394.46 146.992C397.532 145.115 400.433 144.176 403.164 144.176C405.041 144.176 406.662 144.688 408.028 145.712C409.478 146.821 410.204 148.4 410.204 150.448C410.204 152.581 409.393 154.928 407.772 157.488C406.15 160.048 403.846 162.437 400.86 164.656C399.58 165.595 397.958 166.491 395.996 167.344C394.033 168.197 392.07 168.923 390.108 169.52C388.145 170.032 386.524 170.288 385.244 170.288C384.817 171.312 384.39 172.677 383.964 174.384C383.622 176.091 383.452 177.84 383.452 179.632C383.452 181.765 383.878 183.685 384.732 185.392C385.585 187.099 387.164 187.952 389.468 187.952C392.284 187.952 394.844 187.141 397.148 185.52C399.452 183.899 401.5 181.893 403.292 179.504C405.084 177.029 406.577 174.555 407.772 172.08C409.052 169.605 410.076 167.515 410.844 165.808C411.356 164.613 412.038 164.016 412.892 164.016C413.318 164.016 413.532 164.229 413.532 164.656C413.532 164.997 413.404 165.424 413.148 165.936C411.953 168.496 410.673 171.227 409.308 174.128C407.942 176.944 406.321 179.632 404.444 182.192C402.566 184.667 400.305 186.672 397.66 188.208C395.1 189.744 392.028 190.512 388.444 190.512ZM386.14 167.984C387.334 167.984 389.34 167.557 392.156 166.704C394.972 165.765 397.532 164.315 399.836 162.352C402.054 160.389 403.761 158.256 404.956 155.952C406.15 153.563 406.748 151.557 406.748 149.936C406.748 148.059 406.065 147.12 404.7 147.12C403.676 147.12 402.268 147.803 400.476 149.168C398.684 150.533 396.465 152.837 393.82 156.08C392.198 158.128 390.662 160.347 389.212 162.736C387.761 165.125 386.737 166.875 386.14 167.984ZM414.05 190.512C409.868 190.512 406.882 189.445 405.09 187.312C403.383 185.093 402.529 182.789 402.529 180.4C402.529 178.437 402.999 176.645 403.938 175.024C404.962 173.403 406.156 172.549 407.522 172.464C409.228 169.136 411.063 165.509 413.026 161.584C415.074 157.659 416.951 153.861 418.658 150.192C419.852 147.717 421.346 145.328 423.138 143.024C425.015 140.72 427.063 139.397 429.282 139.056H430.562C431.244 139.056 431.842 139.099 432.354 139.184C432.951 139.269 433.548 139.44 434.146 139.696C435.084 140.123 435.554 140.763 435.554 141.616C435.554 142.128 435.255 142.384 434.658 142.384C434.402 142.384 434.06 142.256 433.634 142C432.61 141.573 431.714 141.36 430.946 141.36C430.434 141.36 429.964 141.488 429.538 141.744C427.916 142.597 426.764 143.792 426.082 145.328C425.484 146.864 425.186 148.485 425.186 150.192C425.186 151.557 425.314 152.965 425.57 154.416C425.911 155.781 426.295 157.019 426.722 158.128C427.66 160.517 428.642 162.864 429.666 165.168C430.775 167.472 431.33 169.947 431.33 172.592C431.33 175.152 430.476 177.883 428.77 180.784C427.063 183.6 424.887 185.861 422.242 187.568L423.138 187.696C423.564 187.781 423.863 187.824 424.034 187.824C424.204 187.824 424.332 187.824 424.418 187.824C426.38 187.824 428.215 187.269 429.922 186.16C431.714 184.965 433.292 183.515 434.658 181.808C436.023 180.101 437.559 177.712 439.266 174.64C441.058 171.568 442.764 168.325 444.386 164.912C444.642 164.485 444.94 164.272 445.282 164.272C445.708 164.272 446.007 164.443 446.178 164.784C446.434 165.04 446.476 165.381 446.306 165.808C445.196 168.197 443.916 170.8 442.466 173.616C441.1 176.347 439.522 178.992 437.729 181.552C435.938 184.027 433.847 186.075 431.458 187.696C429.154 189.232 426.551 190 423.65 190C422.967 190 422.242 189.957 421.474 189.872C420.706 189.787 419.938 189.616 419.17 189.36C418.316 189.701 417.42 189.957 416.482 190.128C415.628 190.384 414.818 190.512 414.05 190.512ZM417.89 186.672C419.34 185.477 420.62 183.728 421.73 181.424C422.924 179.12 423.522 176.091 423.522 172.336C423.522 169.008 423.18 165.467 422.498 161.712C421.815 157.957 421.474 154.629 421.474 151.728C421.474 151.131 421.474 150.619 421.474 150.192C421.559 149.68 421.644 149.211 421.73 148.784C420.62 151.088 419.34 153.776 417.89 156.848C416.439 159.835 414.988 162.736 413.538 165.552C412.087 168.368 410.85 170.757 409.826 172.72C409.826 172.72 410.039 172.763 410.466 172.848C410.978 172.848 411.447 173.147 411.874 173.744C412.3 174.256 412.471 175.323 412.385 176.944C412.3 179.077 412.77 181.083 413.794 182.96C414.903 184.752 416.268 185.989 417.89 186.672ZM413.026 188.464C413.538 188.464 414.007 188.421 414.434 188.336C414.86 188.165 415.244 188.037 415.586 187.952C414.306 187.013 413.154 185.776 412.13 184.24C411.191 182.619 410.636 180.571 410.466 178.096C408.93 179.717 408.161 181.467 408.161 183.344C408.161 184.709 408.588 185.904 409.442 186.928C410.295 187.952 411.49 188.464 413.026 188.464Z" fill="white"/>
<path d="M144.61 252.16C142.946 252.16 141.4 251.883 139.97 251.328C138.562 250.752 137.336 249.952 136.29 248.928C135.245 247.904 134.434 246.709 133.858 245.344C133.282 243.957 132.994 242.443 132.994 240.8C132.994 239.157 133.282 237.653 133.858 236.288C134.434 234.901 135.245 233.696 136.29 232.672C137.357 231.648 138.594 230.859 140.002 230.304C141.41 229.728 142.946 229.44 144.61 229.44C146.189 229.44 147.661 229.696 149.026 230.208C150.413 230.72 151.597 231.499 152.578 232.544L151.554 233.6C150.594 232.661 149.528 231.989 148.354 231.584C147.202 231.157 145.976 230.944 144.674 230.944C143.245 230.944 141.912 231.189 140.674 231.68C139.458 232.171 138.392 232.864 137.474 233.76C136.578 234.656 135.874 235.701 135.362 236.896C134.872 238.091 134.626 239.392 134.626 240.8C134.626 242.208 134.872 243.509 135.362 244.704C135.874 245.899 136.578 246.944 137.474 247.84C138.392 248.736 139.458 249.429 140.674 249.92C141.912 250.411 143.245 250.656 144.674 250.656C145.976 250.656 147.202 250.453 148.354 250.048C149.528 249.621 150.594 248.928 151.554 247.968L152.578 249.024C151.597 250.069 150.413 250.859 149.026 251.392C147.661 251.904 146.189 252.16 144.61 252.16ZM167.779 252V248.192L167.715 247.616V241.344C167.715 239.787 167.289 238.603 166.435 237.792C165.603 236.981 164.377 236.576 162.755 236.576C161.603 236.576 160.526 236.779 159.523 237.184C158.542 237.568 157.699 238.069 156.995 238.688L156.195 237.536C157.027 236.789 158.03 236.213 159.203 235.808C160.377 235.381 161.603 235.168 162.883 235.168C164.953 235.168 166.542 235.691 167.651 236.736C168.761 237.781 169.315 239.339 169.315 241.408V252H167.779ZM161.763 252.128C160.526 252.128 159.449 251.936 158.531 251.552C157.635 251.147 156.942 250.581 156.451 249.856C155.982 249.131 155.747 248.299 155.747 247.36C155.747 246.507 155.939 245.739 156.323 245.056C156.729 244.352 157.39 243.787 158.307 243.36C159.225 242.912 160.451 242.688 161.987 242.688H168.131V243.936H162.019C160.291 243.936 159.075 244.256 158.371 244.896C157.689 245.536 157.347 246.336 157.347 247.296C157.347 248.363 157.753 249.216 158.563 249.856C159.374 250.496 160.515 250.816 161.987 250.816C163.395 250.816 164.579 250.496 165.539 249.856C166.521 249.216 167.246 248.288 167.715 247.072L168.163 248.16C167.715 249.376 166.947 250.347 165.859 251.072C164.793 251.776 163.427 252.128 161.763 252.128ZM175.908 252V235.296H177.444V239.872L177.284 239.36C177.753 238.016 178.542 236.981 179.652 236.256C180.761 235.531 182.148 235.168 183.812 235.168V236.736C183.748 236.736 183.684 236.736 183.62 236.736C183.556 236.715 183.492 236.704 183.428 236.704C181.572 236.704 180.121 237.291 179.076 238.464C178.03 239.616 177.508 241.227 177.508 243.296V252H175.908ZM193.834 252.128C192.362 252.128 191.231 251.723 190.442 250.912C189.674 250.101 189.29 248.992 189.29 247.584V231.648H190.89V247.424C190.89 248.491 191.157 249.312 191.69 249.888C192.223 250.464 192.991 250.752 193.994 250.752C195.039 250.752 195.903 250.443 196.586 249.824L197.258 250.944C196.831 251.349 196.309 251.648 195.69 251.84C195.093 252.032 194.474 252.128 193.834 252.128ZM186.218 236.672V235.296H196.202V236.672H186.218ZM209.88 235.168C211.245 235.168 212.429 235.435 213.432 235.968C214.456 236.48 215.245 237.269 215.8 238.336C216.376 239.381 216.664 240.683 216.664 242.24V252H215.064V242.368C215.064 240.491 214.584 239.061 213.624 238.08C212.685 237.099 211.363 236.608 209.656 236.608C208.355 236.608 207.224 236.875 206.264 237.408C205.304 237.941 204.568 238.688 204.056 239.648C203.565 240.608 203.32 241.76 203.32 243.104V252H201.72V228.256H203.32V239.936L203.032 239.424C203.544 238.101 204.387 237.067 205.56 236.32C206.733 235.552 208.173 235.168 209.88 235.168ZM233.779 252V248.192L233.715 247.616V241.344C233.715 239.787 233.289 238.603 232.435 237.792C231.603 236.981 230.377 236.576 228.755 236.576C227.603 236.576 226.526 236.779 225.523 237.184C224.542 237.568 223.699 238.069 222.995 238.688L222.195 237.536C223.027 236.789 224.03 236.213 225.203 235.808C226.377 235.381 227.603 235.168 228.883 235.168C230.953 235.168 232.542 235.691 233.651 236.736C234.761 237.781 235.315 239.339 235.315 241.408V252H233.779ZM227.763 252.128C226.526 252.128 225.449 251.936 224.531 251.552C223.635 251.147 222.942 250.581 222.451 249.856C221.982 249.131 221.747 248.299 221.747 247.36C221.747 246.507 221.939 245.739 222.323 245.056C222.729 244.352 223.39 243.787 224.307 243.36C225.225 242.912 226.451 242.688 227.987 242.688H234.131V243.936H228.019C226.291 243.936 225.075 244.256 224.371 244.896C223.689 245.536 223.347 246.336 223.347 247.296C223.347 248.363 223.753 249.216 224.563 249.856C225.374 250.496 226.515 250.816 227.987 250.816C229.395 250.816 230.579 250.496 231.539 249.856C232.521 249.216 233.246 248.288 233.715 247.072L234.163 248.16C233.715 249.376 232.947 250.347 231.859 251.072C230.793 251.776 229.427 252.128 227.763 252.128ZM248.852 258.336C247.337 258.336 245.897 258.101 244.532 257.632C243.166 257.163 242.057 256.512 241.204 255.68L242.068 254.464C242.9 255.232 243.892 255.829 245.044 256.256C246.217 256.683 247.476 256.896 248.82 256.896C251.06 256.896 252.702 256.373 253.748 255.328C254.814 254.283 255.348 252.64 255.348 250.4V245.76L255.668 243.264L255.412 240.768V235.296H256.948V250.208C256.948 253.003 256.265 255.051 254.9 256.352C253.556 257.675 251.54 258.336 248.852 258.336ZM248.404 251.392C246.825 251.392 245.406 251.051 244.148 250.368C242.91 249.664 241.918 248.704 241.172 247.488C240.446 246.251 240.084 244.843 240.084 243.264C240.084 241.664 240.446 240.256 241.172 239.04C241.918 237.824 242.91 236.875 244.148 236.192C245.406 235.509 246.825 235.168 248.404 235.168C249.918 235.168 251.273 235.499 252.468 236.16C253.684 236.8 254.644 237.728 255.348 238.944C256.052 240.139 256.404 241.579 256.404 243.264C256.404 244.928 256.052 246.368 255.348 247.584C254.644 248.8 253.684 249.739 252.468 250.4C251.273 251.061 249.918 251.392 248.404 251.392ZM248.532 249.952C249.876 249.952 251.06 249.675 252.084 249.12C253.108 248.544 253.908 247.755 254.484 246.752C255.081 245.728 255.38 244.565 255.38 243.264C255.38 241.941 255.081 240.779 254.484 239.776C253.908 238.773 253.108 237.995 252.084 237.44C251.06 236.885 249.876 236.608 248.532 236.608C247.23 236.608 246.057 236.885 245.012 237.44C243.988 237.995 243.177 238.773 242.58 239.776C242.004 240.779 241.716 241.941 241.716 243.264C241.716 244.565 242.004 245.728 242.58 246.752C243.177 247.755 243.988 248.544 245.012 249.12C246.057 249.675 247.23 249.952 248.532 249.952ZM270.504 252.128C268.819 252.128 267.325 251.765 266.024 251.04C264.744 250.315 263.731 249.312 262.984 248.032C262.259 246.752 261.896 245.291 261.896 243.648C261.896 241.984 262.237 240.523 262.92 239.264C263.624 237.984 264.584 236.981 265.8 236.256C267.016 235.531 268.381 235.168 269.896 235.168C271.411 235.168 272.765 235.52 273.96 236.224C275.176 236.928 276.125 237.92 276.808 239.2C277.512 240.459 277.864 241.92 277.864 243.584C277.864 243.648 277.853 243.723 277.832 243.808C277.832 243.872 277.832 243.947 277.832 244.032H263.08V242.784H276.968L276.328 243.392C276.349 242.091 276.072 240.928 275.496 239.904C274.941 238.859 274.184 238.048 273.224 237.472C272.264 236.875 271.155 236.576 269.896 236.576C268.659 236.576 267.549 236.875 266.568 237.472C265.608 238.048 264.851 238.859 264.296 239.904C263.741 240.928 263.464 242.101 263.464 243.424V243.712C263.464 245.077 263.763 246.293 264.36 247.36C264.979 248.405 265.821 249.227 266.888 249.824C267.955 250.4 269.171 250.688 270.536 250.688C271.603 250.688 272.595 250.496 273.512 250.112C274.451 249.728 275.24 249.141 275.88 248.352L276.808 249.408C276.083 250.304 275.165 250.987 274.056 251.456C272.968 251.904 271.784 252.128 270.504 252.128ZM295.833 252V231.072H287.769V229.6H305.529V231.072H297.465V252H295.833ZM314.098 252.128C312.413 252.128 310.919 251.765 309.618 251.04C308.338 250.315 307.325 249.312 306.578 248.032C305.853 246.752 305.49 245.291 305.49 243.648C305.49 241.984 305.831 240.523 306.514 239.264C307.218 237.984 308.178 236.981 309.394 236.256C310.61 235.531 311.975 235.168 313.49 235.168C315.005 235.168 316.359 235.52 317.554 236.224C318.77 236.928 319.719 237.92 320.402 239.2C321.106 240.459 321.458 241.92 321.458 243.584C321.458 243.648 321.447 243.723 321.426 243.808C321.426 243.872 321.426 243.947 321.426 244.032H306.674V242.784H320.562L319.922 243.392C319.943 242.091 319.666 240.928 319.09 239.904C318.535 238.859 317.778 238.048 316.818 237.472C315.858 236.875 314.749 236.576 313.49 236.576C312.253 236.576 311.143 236.875 310.162 237.472C309.202 238.048 308.445 238.859 307.89 239.904C307.335 240.928 307.058 242.101 307.058 243.424V243.712C307.058 245.077 307.357 246.293 307.954 247.36C308.573 248.405 309.415 249.227 310.482 249.824C311.549 250.4 312.765 250.688 314.13 250.688C315.197 250.688 316.189 250.496 317.106 250.112C318.045 249.728 318.834 249.141 319.474 248.352L320.402 249.408C319.677 250.304 318.759 250.987 317.65 251.456C316.562 251.904 315.378 252.128 314.098 252.128ZM323.283 252L330.227 242.976L330.195 243.744L323.635 235.296H325.459L331.187 242.688H330.515L336.211 235.296H338.003L331.379 243.84L331.411 242.976L338.451 252H336.563L330.515 244.128L331.123 244.192L325.107 252H323.283ZM352.748 252V248.192L352.684 247.616V241.344C352.684 239.787 352.257 238.603 351.404 237.792C350.572 236.981 349.345 236.576 347.724 236.576C346.572 236.576 345.495 236.779 344.492 237.184C343.511 237.568 342.668 238.069 341.964 238.688L341.164 237.536C341.996 236.789 342.999 236.213 344.172 235.808C345.345 235.381 346.572 235.168 347.852 235.168C349.921 235.168 351.511 235.691 352.62 236.736C353.729 237.781 354.284 239.339 354.284 241.408V252H352.748ZM346.732 252.128C345.495 252.128 344.417 251.936 343.5 251.552C342.604 251.147 341.911 250.581 341.42 249.856C340.951 249.131 340.716 248.299 340.716 247.36C340.716 246.507 340.908 245.739 341.292 245.056C341.697 244.352 342.359 243.787 343.276 243.36C344.193 242.912 345.42 242.688 346.956 242.688H353.1V243.936H346.988C345.26 243.936 344.044 244.256 343.34 244.896C342.657 245.536 342.316 246.336 342.316 247.296C342.316 248.363 342.721 249.216 343.532 249.856C344.343 250.496 345.484 250.816 346.956 250.816C348.364 250.816 349.548 250.496 350.508 249.856C351.489 249.216 352.215 248.288 352.684 247.072L353.132 248.16C352.684 249.376 351.916 250.347 350.828 251.072C349.761 251.776 348.396 252.128 346.732 252.128ZM365.1 252.128C363.714 252.128 362.412 251.925 361.196 251.52C360.002 251.115 359.074 250.603 358.412 249.984L359.148 248.704C359.788 249.259 360.642 249.739 361.708 250.144C362.775 250.528 363.927 250.72 365.164 250.72C366.914 250.72 368.172 250.432 368.94 249.856C369.708 249.28 370.092 248.523 370.092 247.584C370.092 246.901 369.89 246.368 369.484 245.984C369.1 245.579 368.578 245.269 367.916 245.056C367.255 244.843 366.53 244.672 365.74 244.544C364.951 244.395 364.162 244.235 363.372 244.064C362.583 243.893 361.858 243.648 361.196 243.328C360.535 243.008 360.002 242.571 359.596 242.016C359.212 241.44 359.02 240.683 359.02 239.744C359.02 238.891 359.255 238.123 359.724 237.44C360.194 236.757 360.898 236.213 361.836 235.808C362.775 235.381 363.948 235.168 365.356 235.168C366.402 235.168 367.447 235.317 368.492 235.616C369.559 235.915 370.423 236.309 371.084 236.8L370.348 238.08C369.644 237.547 368.855 237.163 367.98 236.928C367.106 236.693 366.22 236.576 365.324 236.576C363.703 236.576 362.508 236.875 361.74 237.472C360.994 238.069 360.62 238.816 360.62 239.712C360.62 240.416 360.812 240.981 361.196 241.408C361.602 241.813 362.135 242.133 362.796 242.368C363.458 242.581 364.183 242.763 364.972 242.912C365.762 243.04 366.551 243.189 367.34 243.36C368.13 243.531 368.855 243.776 369.516 244.096C370.178 244.395 370.7 244.821 371.084 245.376C371.49 245.909 371.692 246.635 371.692 247.552C371.692 248.469 371.436 249.269 370.924 249.952C370.434 250.635 369.698 251.168 368.716 251.552C367.735 251.936 366.53 252.128 365.1 252.128Z" fill="white"/>
<line y1="240" x2="116" y2="240" stroke="#FED2A8" stroke-width="2"/>
<line x1="389" y1="240" x2="505" y2="240" stroke="#FED2A8" stroke-width="2"/>
</svg>
