<svg width="943" height="582" viewBox="0 0 943 582" fill="none" xmlns="http://www.w3.org/2000/svg">
<path fill-rule="evenodd" clip-rule="evenodd" d="M443.702 440.733L417.032 419.265C405.416 409.915 403.579 392.919 412.929 381.303L625.536 117.173C631.031 110.345 641.022 109.265 647.85 114.761L651.76 117.909C656.428 121.666 663.259 120.928 667.016 116.26C670.774 111.592 670.035 104.762 665.367 101.004L661.457 97.8565C654.629 92.3606 653.549 82.3702 659.045 75.5424L702.922 21.0328C712.272 9.41668 729.268 7.57978 740.884 16.9299L769.464 39.9343C781.08 49.2844 782.917 66.2809 773.567 77.897L766.605 86.546C757.255 98.1621 759.091 115.159 770.708 124.509L809.884 156.043C821.5 165.393 838.496 163.556 847.846 151.94L852.087 146.672C861.437 135.056 878.433 133.219 890.049 142.569L918.629 165.573C930.245 174.923 932.082 191.92 922.732 203.536L882.998 252.898C876.717 260.702 865.3 261.936 857.496 255.655L851.82 251.085C847.152 247.328 840.321 248.066 836.564 252.734C832.806 257.402 833.545 264.233 838.213 267.99L843.721 272.424C851.562 278.735 852.669 290.264 846.174 297.952L628.482 555.63C619.02 566.83 602.349 568.432 590.927 559.239L568.919 541.524C557.303 532.173 555.466 515.177 564.816 503.561L566.335 501.674C575.685 490.058 573.848 473.061 562.232 463.711L521.434 430.871C510.471 422.047 494.569 423.123 484.895 433.343L480.241 438.26C470.567 448.481 454.665 449.557 443.702 440.733ZM695.378 125.156C693.226 123.424 690.079 123.765 688.347 125.916L683.732 131.65C682 133.801 682.341 136.948 684.492 138.68L712.024 160.842C714.175 162.573 717.323 162.233 719.054 160.082L723.67 154.348C725.401 152.197 725.061 149.049 722.91 147.318L695.378 125.156ZM737.828 165.719C739.56 163.568 742.707 163.228 744.858 164.959L772.391 187.121C774.542 188.853 774.882 192 773.151 194.151L768.535 199.885C766.804 202.036 763.656 202.377 761.505 200.645L733.973 178.483C731.821 176.752 731.481 173.604 733.213 171.453L737.828 165.719ZM794.285 204.777C792.134 203.046 788.987 203.386 787.255 205.537L782.64 211.271C780.908 213.422 781.248 216.57 783.4 218.301L810.932 240.463C813.083 242.194 816.231 241.854 817.962 239.703L822.578 233.969C824.309 231.818 823.969 228.67 821.818 226.939L794.285 204.777Z" fill="white"/>
<path d="M119.4 265.8C119.4 273.933 117.533 281.4 113.8 288.2C110.067 294.867 104.333 300.267 96.6 304.4C88.8667 308.533 79.2667 310.6 67.8 310.6H46.6V361H12.4V220.6H67.8C79 220.6 88.4667 222.533 96.2 226.4C103.933 230.267 109.733 235.6 113.6 242.4C117.467 249.2 119.4 257 119.4 265.8ZM65.2 283.4C71.7333 283.4 76.6 281.867 79.8 278.8C83 275.733 84.6 271.4 84.6 265.8C84.6 260.2 83 255.867 79.8 252.8C76.6 249.733 71.7333 248.2 65.2 248.2H46.6V283.4H65.2ZM171.405 268C175.405 261.867 180.405 257.067 186.405 253.6C192.405 250 199.071 248.2 206.405 248.2V284.4H197.005C188.471 284.4 182.071 286.267 177.805 290C173.538 293.6 171.405 300 171.405 309.2V361H137.205V249.4H171.405V268ZM273.552 362.6C262.618 362.6 252.752 360.267 243.952 355.6C235.285 350.933 228.418 344.267 223.352 335.6C218.418 326.933 215.952 316.8 215.952 305.2C215.952 293.733 218.485 283.667 223.552 275C228.618 266.2 235.552 259.467 244.352 254.8C253.152 250.133 263.018 247.8 273.952 247.8C284.885 247.8 294.752 250.133 303.552 254.8C312.352 259.467 319.285 266.2 324.352 275C329.418 283.667 331.952 293.733 331.952 305.2C331.952 316.667 329.352 326.8 324.152 335.6C319.085 344.267 312.085 350.933 303.152 355.6C294.352 360.267 284.485 362.6 273.552 362.6ZM273.552 333C280.085 333 285.618 330.6 290.152 325.8C294.818 321 297.152 314.133 297.152 305.2C297.152 296.267 294.885 289.4 290.352 284.6C285.952 279.8 280.485 277.4 273.952 277.4C267.285 277.4 261.752 279.8 257.352 284.6C252.952 289.267 250.752 296.133 250.752 305.2C250.752 314.133 252.885 321 257.152 325.8C261.552 330.6 267.018 333 273.552 333ZM398.495 362.4C389.162 362.4 380.762 360.8 373.295 357.6C365.829 354.267 359.962 349.6 355.695 343.6C351.429 337.6 349.295 330.6 349.295 322.6H373.695C374.229 328.6 376.562 333.533 380.695 337.4C384.962 341.267 390.895 343.2 398.495 343.2C406.362 343.2 412.495 341.333 416.895 337.6C421.295 333.733 423.495 328.8 423.495 322.8C423.495 318.133 422.095 314.333 419.295 311.4C416.629 308.467 413.229 306.2 409.095 304.6C405.095 303 399.495 301.267 392.295 299.4C383.229 297 375.829 294.6 370.095 292.2C364.495 289.667 359.695 285.8 355.695 280.6C351.695 275.4 349.695 268.467 349.695 259.8C349.695 251.8 351.695 244.8 355.695 238.8C359.695 232.8 365.295 228.2 372.495 225C379.695 221.8 388.029 220.2 397.495 220.2C410.962 220.2 421.962 223.6 430.495 230.4C439.162 237.067 443.962 246.267 444.895 258H419.695C419.295 252.933 416.895 248.6 412.495 245C408.095 241.4 402.295 239.6 395.095 239.6C388.562 239.6 383.229 241.267 379.095 244.6C374.962 247.933 372.895 252.733 372.895 259C372.895 263.267 374.162 266.8 376.695 269.6C379.362 272.267 382.695 274.4 386.695 276C390.695 277.6 396.162 279.333 403.095 281.2C412.295 283.733 419.762 286.267 425.495 288.8C431.362 291.333 436.295 295.267 440.295 300.6C444.429 305.8 446.495 312.8 446.495 321.6C446.495 328.667 444.562 335.333 440.695 341.6C436.962 347.867 431.429 352.933 424.095 356.8C416.895 360.533 408.362 362.4 398.495 362.4ZM574.398 303.2C574.398 307.333 574.132 311.067 573.598 314.4H489.398C490.065 323.2 493.332 330.267 499.198 335.6C505.065 340.933 512.265 343.6 520.798 343.6C533.065 343.6 541.732 338.467 546.798 328.2H571.398C568.065 338.333 561.998 346.667 553.198 353.2C544.532 359.6 533.732 362.8 520.798 362.8C510.265 362.8 500.798 360.467 492.398 355.8C484.132 351 477.598 344.333 472.798 335.8C468.132 327.133 465.798 317.133 465.798 305.8C465.798 294.467 468.065 284.533 472.598 276C477.265 267.333 483.732 260.667 491.998 256C500.398 251.333 509.998 249 520.798 249C531.198 249 540.465 251.267 548.598 255.8C556.732 260.333 563.065 266.733 567.598 275C572.132 283.133 574.398 292.533 574.398 303.2ZM550.598 296C550.465 287.6 547.465 280.867 541.598 275.8C535.732 270.733 528.465 268.2 519.798 268.2C511.932 268.2 505.198 270.733 499.598 275.8C493.998 280.733 490.665 287.467 489.598 296H550.598ZM589.236 305.4C589.236 294.333 591.503 284.533 596.036 276C600.703 267.467 606.969 260.867 614.836 256.2C622.836 251.4 631.636 249 641.236 249C649.903 249 657.436 250.733 663.836 254.2C670.369 257.533 675.569 261.733 679.436 266.8V250.8H702.436V361H679.436V344.6C675.569 349.8 670.303 354.133 663.636 357.6C656.969 361.067 649.369 362.8 640.836 362.8C631.369 362.8 622.703 360.4 614.836 355.6C606.969 350.667 600.703 343.867 596.036 335.2C591.503 326.4 589.236 316.467 589.236 305.4ZM679.436 305.8C679.436 298.2 677.836 291.6 674.636 286C671.569 280.4 667.503 276.133 662.436 273.2C657.369 270.267 651.903 268.8 646.036 268.8C640.169 268.8 634.703 270.267 629.636 273.2C624.569 276 620.436 280.2 617.236 285.8C614.169 291.267 612.636 297.8 612.636 305.4C612.636 313 614.169 319.667 617.236 325.4C620.436 331.133 624.569 335.533 629.636 338.6C634.836 341.533 640.303 343 646.036 343C651.903 343 657.369 341.533 662.436 338.6C667.503 335.667 671.569 331.4 674.636 325.8C677.836 320.067 679.436 313.4 679.436 305.8ZM758.983 269.4V330.4C758.983 334.533 759.916 337.533 761.783 339.4C763.783 341.133 767.116 342 771.783 342H785.783V361H767.783C757.516 361 749.649 358.6 744.183 353.8C738.716 349 735.983 341.2 735.983 330.4V269.4H722.983V250.8H735.983V223.4H758.983V250.8H785.783V269.4H758.983Z" fill="black"/>
</svg>
