<svg width="515" height="155" viewBox="0 0 515 155" fill="none" xmlns="http://www.w3.org/2000/svg">
<path d="M20.68 111.68C18.92 111.68 17.2 111.56 15.52 111.32C10.48 110.68 6.76 109.2 4.36 106.88C2.04 104.56 0.88 102.04 0.88 99.32C0.88 96.36 2.2 93.68 4.84 91.28C7.56 88.88 11.36 87.68 16.24 87.68C17.76 87.68 19.36 87.84 21.04 88.16C22.8 88.4 24.64 88.84 26.56 89.48C27.52 89.8 28 90.24 28 90.8C28 91.12 27.76 91.28 27.28 91.28C26.8 91.28 26.4 91.2 26.08 91.04C24.8 90.56 23.56 90.24 22.36 90.08C21.24 89.84 20.16 89.72 19.12 89.72C15.68 89.72 13.04 90.72 11.2 92.72C9.44 94.64 8.56 96.76 8.56 99.08C8.56 101.32 9.48 103.36 11.32 105.2C13.16 107.04 16.08 107.96 20.08 107.96C25.12 107.96 29.76 106.8 34 104.48C38.32 102.16 42.4 99.12 46.24 95.36C50.32 91.36 54.04 86.56 57.4 80.96C60.76 75.28 64.08 69.24 67.36 62.84C70.72 56.36 74.36 49.84 78.28 43.28C82.2 36.72 86.72 30.56 91.84 24.8C92.88 23.68 93.92 22.52 94.96 21.32C96.08 20.04 97.16 18.96 98.2 18.08C95.48 17.68 92.68 17.4 89.8 17.24C86.92 17 84.08 16.88 81.28 16.88C77.12 16.88 73.16 17.08 69.4 17.48C65.72 17.8 62.04 18.28 58.36 18.92C54.6 19.64 50.4 20.76 45.76 22.28C41.12 23.8 36.6 25.8 32.2 28.28C27.88 30.68 24.16 33.6 21.04 37.04C18 40.48 16.12 44.44 15.4 48.92C15.32 49.32 15.24 49.76 15.16 50.24C15.16 50.64 15.16 51.04 15.16 51.44C15.16 55.12 16.4 58.16 18.88 60.56C21.44 62.96 24.4 64.16 27.76 64.16C30.24 64.16 32.64 63.52 34.96 62.24C37.28 60.88 39.36 59.12 41.2 56.96C43.04 54.72 44.4 52.28 45.28 49.64C45.36 48.84 45.68 48.44 46.24 48.44C46.72 48.44 46.96 48.88 46.96 49.76C46.88 53.28 45.84 56.32 43.84 58.88C41.92 61.44 39.48 63.4 36.52 64.76C33.56 66.04 30.56 66.68 27.52 66.68C24.4 66.68 21.44 66.04 18.64 64.76C15.84 63.4 13.56 61.44 11.8 58.88C10.04 56.24 9.16 53 9.16 49.16C9.16 44.68 10.24 40.72 12.4 37.28C14.64 33.84 17.6 30.84 21.28 28.28C24.96 25.64 28.96 23.44 33.28 21.68C37.6 19.84 41.92 18.4 46.24 17.36C50.56 16.24 54.48 15.4 58 14.84C61.6 14.28 65.32 13.84 69.16 13.52C73.08 13.2 77.04 13.04 81.04 13.04C84.48 13.04 87.92 13.2 91.36 13.52C94.8 13.84 98.16 14.32 101.44 14.96C102.8 13.92 104.2 13 105.64 12.2C107.08 11.4 108.68 10.68 110.44 10.04C111.56 9.56 112.4 9.32 112.96 9.32C113.44 9.32 113.68 9.48 113.68 9.79999C113.68 10.36 113.04 11.04 111.76 11.84C111.12 12.16 110.32 12.72 109.36 13.52C108.4 14.32 107.36 15.24 106.24 16.28C111.44 17.56 116.12 19.48 120.28 22.04C124.84 24.76 128.08 27.64 130 30.68C132 33.72 133 36.84 133 40.04C133 43.72 131.88 47.4 129.64 51.08C127.4 54.68 124.48 58.04 120.88 61.16C117.28 64.28 113.32 67 109 69.32C104.68 71.56 100.4 73.2 96.16 74.24C92.08 75.28 87.96 76.04 83.8 76.52C79.64 77 75.92 77.24 72.64 77.24C72.08 77.24 71.48 77.24 70.84 77.24C70.28 77.24 69.72 77.2 69.16 77.12C66.44 80.96 63.64 84.72 60.76 88.4C57.88 92 54.64 95.52 51.04 98.96C46.64 103.12 41.84 106.28 36.64 108.44C31.44 110.6 26.12 111.68 20.68 111.68ZM70.84 74.48C73.88 74.56 77.28 74.32 81.04 73.76C84.8 73.2 88.56 72.36 92.32 71.24C98.56 69.32 104.16 66.56 109.12 62.96C114.16 59.36 118.12 55.36 121 50.96C123.96 46.56 125.44 42.24 125.44 38C125.44 35.44 124.8 33 123.52 30.68C122.32 28.36 120.32 26.28 117.52 24.44C115.68 23.24 113.6 22.2 111.28 21.32C108.96 20.44 106.52 19.72 103.96 19.16C99.88 24.92 96.04 30.92 92.44 37.16C88.92 43.4 85.4 49.68 81.88 56C78.44 62.32 74.76 68.48 70.84 74.48ZM106.544 107.96C109.904 101.08 113.384 93.88 116.984 86.36C120.664 78.76 124.424 71.12 128.264 63.44C132.104 55.76 135.904 48.44 139.664 41.48C141.024 39.08 142.264 37.2 143.384 35.84C144.584 34.48 146.144 33.8 148.064 33.8C148.784 33.8 149.624 33.92 150.584 34.16C151.544 34.4 152.464 34.44 153.344 34.28C152.304 35.4 150.864 37.36 149.024 40.16C147.264 42.96 145.264 46.32 143.024 50.24C140.864 54.16 138.544 58.4 136.064 62.96C133.664 67.44 131.264 72 128.864 76.64C126.544 81.2 124.384 85.48 122.384 89.48C123.984 87.4 125.624 85.44 127.304 83.6C128.984 81.76 130.624 80.16 132.224 78.8C133.984 77.2 136.184 75.52 138.824 73.76C141.544 72 144.224 70.48 146.864 69.2C149.584 67.92 151.744 67.28 153.344 67.28C153.904 67.28 154.304 67.32 154.544 67.4C154.544 67.4 154.104 68.2 153.224 69.8C152.344 71.4 151.224 73.44 149.864 75.92C148.584 78.4 147.224 81.08 145.784 83.96C144.424 86.84 143.224 89.6 142.184 92.24C141.144 94.8 140.464 96.92 140.144 98.6C139.904 99.88 139.784 100.96 139.784 101.84C139.784 103.12 140.024 104 140.504 104.48C140.984 104.88 141.504 105.08 142.064 105.08C143.424 105.08 144.904 104.24 146.504 102.56C148.104 100.88 149.664 98.84 151.184 96.44C152.704 93.96 154.064 91.56 155.264 89.24C156.544 86.92 157.504 85.12 158.144 83.84C158.624 82.96 159.104 82.52 159.584 82.52C160.064 82.52 160.304 82.84 160.304 83.48C160.304 83.8 160.184 84.28 159.944 84.92C158.904 87 157.704 89.36 156.344 92C155.064 94.56 153.584 97.04 151.904 99.44C150.304 101.76 148.504 103.68 146.504 105.2C144.584 106.72 142.504 107.48 140.264 107.48C138.664 107.48 137.024 106.92 135.344 105.8C133.664 104.68 132.824 102.64 132.824 99.68C132.824 98.8 132.904 97.88 133.064 96.92C133.224 95.88 133.504 94.72 133.904 93.44C134.384 91.84 135.184 90.08 136.304 88.16C137.424 86.16 138.864 83.68 140.624 80.72C141.424 79.36 141.824 78.28 141.824 77.48C141.824 76.52 141.344 76.04 140.384 76.04C139.584 76.04 138.504 76.44 137.144 77.24C135.784 78.04 134.064 79.44 131.984 81.44C129.984 83.36 127.504 86.16 124.544 89.84C121.584 93.52 118.424 98.68 115.064 105.32C114.504 106.36 113.864 106.92 113.144 107C112.504 107 111.624 107.04 110.504 107.12C109.784 107.2 109.064 107.24 108.344 107.24C107.624 107.32 107.024 107.56 106.544 107.96ZM163.902 107C160.862 107 158.622 106 157.182 104C155.742 101.92 155.022 99.4 155.022 96.44C155.022 92.84 155.862 89.08 157.542 85.16C159.142 81.48 161.182 78.12 163.662 75.08C166.142 72.04 168.822 69.6 171.702 67.76C174.582 65.84 177.382 64.88 180.102 64.88C183.142 64.88 185.382 65.88 186.822 67.88C188.262 69.88 188.982 72.4 188.982 75.44C188.982 79.12 188.142 82.88 186.462 86.72C185.502 88.88 184.142 91.28 182.382 93.92C180.622 96.48 178.622 98.84 176.382 101C176.862 101.88 177.542 102.64 178.422 103.28C179.302 103.84 180.502 104.12 182.022 104.12C183.942 104.12 185.742 103.32 187.422 101.72C189.182 100.12 190.782 98.2 192.222 95.96C193.662 93.64 194.942 91.32 196.062 89C197.182 86.68 198.102 84.8 198.822 83.36C199.062 82.88 199.462 82.64 200.022 82.64C200.342 82.64 200.582 82.8 200.742 83.12C200.902 83.36 200.862 83.76 200.622 84.32C200.142 85.52 199.342 87.32 198.222 89.72C197.102 92.04 195.742 94.48 194.142 97.04C192.542 99.52 190.702 101.64 188.622 103.4C186.542 105.16 184.222 106.04 181.662 106.04C179.902 106.04 178.382 105.76 177.102 105.2C175.822 104.56 174.782 103.8 173.982 102.92C172.302 104.2 170.622 105.2 168.942 105.92C167.262 106.64 165.582 107 163.902 107ZM165.702 104.36C167.862 104.36 170.182 103.32 172.662 101.24C172.022 100.28 171.542 99.28 171.222 98.24C170.902 97.2 170.742 96.24 170.742 95.36C170.742 93.92 171.062 92.68 171.702 91.64C172.422 90.6 173.502 90.08 174.942 90.08C175.982 90.08 176.822 90.48 177.462 91.28C178.182 92 178.542 92.84 178.542 93.8C178.542 94.04 178.502 94.28 178.422 94.52C178.422 94.68 178.382 94.88 178.302 95.12C179.662 93.28 180.942 91.12 182.142 88.64C184.782 82.96 186.102 78.28 186.102 74.6C186.102 72.76 185.742 71.32 185.022 70.28C184.302 69.24 183.222 68.72 181.782 68.72C180.102 68.72 178.262 69.44 176.262 70.88C174.342 72.32 172.462 74.24 170.622 76.64C168.862 79.04 167.302 81.72 165.942 84.68C164.662 87.4 163.622 90.04 162.822 92.6C162.102 95.08 161.742 97.24 161.742 99.08C161.742 100.68 162.062 101.96 162.702 102.92C163.342 103.88 164.342 104.36 165.702 104.36ZM204.217 107C201.977 107 199.977 106.24 198.217 104.72C196.457 103.12 195.577 100.64 195.577 97.28C195.577 94.64 196.057 91.4 197.017 87.56C198.057 83.64 199.297 79.6 200.737 75.44C202.257 71.2 203.737 67.36 205.177 63.92H198.817C198.257 63.92 197.977 63.52 197.977 62.72C197.977 62.32 198.057 61.96 198.217 61.64C198.457 61.32 198.777 61.16 199.177 61.16H206.377C207.737 58.12 209.177 55.16 210.697 52.28C212.217 49.4 213.697 46.68 215.137 44.12C216.977 40.92 218.937 38.52 221.017 36.92C223.097 35.32 224.897 34.52 226.417 34.52C227.617 34.52 228.617 35 229.417 35.96C230.217 36.84 230.617 38.2 230.617 40.04C230.617 41.16 230.377 42.72 229.897 44.72C229.417 46.64 228.657 48.68 227.617 50.84C227.057 51.96 226.257 53.56 225.217 55.64C224.257 57.72 223.297 59.56 222.337 61.16H228.097C228.657 61.16 228.937 61.56 228.937 62.36C228.937 62.68 228.857 63.04 228.697 63.44C228.537 63.76 228.297 63.92 227.977 63.92H220.897C218.897 67.36 216.617 70.72 214.057 74C211.497 77.28 208.457 80.56 204.937 83.84C204.697 84.56 204.377 85.6 203.977 86.96C203.657 88.32 203.337 89.72 203.017 91.16C202.777 92.52 202.537 93.68 202.297 94.64C202.137 95.6 202.057 96.08 202.057 96.08C201.817 97.12 201.697 98.08 201.697 98.96C201.697 100.64 202.097 101.88 202.897 102.68C203.697 103.4 204.617 103.76 205.657 103.76C206.297 103.76 206.937 103.68 207.577 103.52C208.217 103.28 208.937 102.88 209.737 102.32C212.537 100.32 214.977 97.6 217.057 94.16C219.217 90.72 221.097 87.4 222.697 84.2C223.177 83.24 223.657 82.76 224.137 82.76C224.457 82.76 224.617 83 224.617 83.48C224.617 83.72 224.497 84.16 224.257 84.8C222.497 88.48 221.017 91.44 219.817 93.68C218.617 95.92 217.457 97.8 216.337 99.32C215.217 100.76 213.897 102.2 212.377 103.64C211.257 104.76 209.977 105.6 208.537 106.16C207.097 106.72 205.657 107 204.217 107ZM213.697 61.16H219.817C220.937 59.08 221.977 57.04 222.937 55.04C223.977 53.04 224.897 51.04 225.697 49.04C226.257 47.76 226.737 46.32 227.137 44.72C227.537 43.12 227.737 41.88 227.737 41C227.737 39.8 227.457 39.2 226.897 39.2C226.497 39.2 225.897 39.56 225.097 40.28C224.377 40.92 223.457 42.04 222.337 43.64C220.897 45.64 219.457 48.24 218.017 51.44C216.657 54.56 215.217 57.8 213.697 61.16ZM205.897 80C208.217 77.6 210.377 75.04 212.377 72.32C214.457 69.6 216.377 66.8 218.137 63.92H212.497C211.217 66.88 210.017 69.76 208.897 72.56C207.777 75.36 206.777 77.84 205.897 80ZM228.238 107C225.198 107 222.958 106 221.518 104C220.078 101.92 219.358 99.4 219.358 96.44C219.358 92.84 220.198 89.08 221.878 85.16C223.478 81.48 225.518 78.12 227.998 75.08C230.478 72.04 233.158 69.6 236.038 67.76C238.918 65.84 241.718 64.88 244.438 64.88C247.478 64.88 249.718 65.88 251.158 67.88C252.598 69.88 253.318 72.4 253.318 75.44C253.318 79.12 252.478 82.88 250.798 86.72C249.838 88.88 248.478 91.28 246.718 93.92C244.958 96.48 242.958 98.84 240.718 101C241.198 101.88 241.878 102.64 242.758 103.28C243.638 103.84 244.838 104.12 246.358 104.12C248.278 104.12 250.078 103.32 251.758 101.72C253.518 100.12 255.118 98.2 256.558 95.96C257.998 93.64 259.278 91.32 260.398 89C261.518 86.68 262.438 84.8 263.158 83.36C263.398 82.88 263.798 82.64 264.358 82.64C264.678 82.64 264.918 82.8 265.078 83.12C265.238 83.36 265.198 83.76 264.958 84.32C264.478 85.52 263.678 87.32 262.558 89.72C261.438 92.04 260.078 94.48 258.478 97.04C256.878 99.52 255.038 101.64 252.958 103.4C250.878 105.16 248.558 106.04 245.998 106.04C244.238 106.04 242.718 105.76 241.438 105.2C240.158 104.56 239.118 103.8 238.318 102.92C236.638 104.2 234.958 105.2 233.278 105.92C231.598 106.64 229.918 107 228.238 107ZM230.038 104.36C232.198 104.36 234.518 103.32 236.998 101.24C236.358 100.28 235.878 99.28 235.558 98.24C235.238 97.2 235.078 96.24 235.078 95.36C235.078 93.92 235.398 92.68 236.038 91.64C236.758 90.6 237.838 90.08 239.278 90.08C240.318 90.08 241.158 90.48 241.798 91.28C242.518 92 242.878 92.84 242.878 93.8C242.878 94.04 242.838 94.28 242.758 94.52C242.758 94.68 242.718 94.88 242.638 95.12C243.998 93.28 245.278 91.12 246.478 88.64C249.118 82.96 250.438 78.28 250.438 74.6C250.438 72.76 250.078 71.32 249.358 70.28C248.638 69.24 247.558 68.72 246.118 68.72C244.438 68.72 242.598 69.44 240.598 70.88C238.678 72.32 236.798 74.24 234.958 76.64C233.198 79.04 231.638 81.72 230.278 84.68C228.998 87.4 227.958 90.04 227.158 92.6C226.438 95.08 226.078 97.24 226.078 99.08C226.078 100.68 226.398 101.96 227.038 102.92C227.678 103.88 228.678 104.36 230.038 104.36ZM254.513 145.28C246.913 145.28 243.113 142.16 243.113 135.92C243.113 132.96 244.153 130.32 246.233 128C248.313 125.68 250.793 123.68 253.673 122C257.673 119.6 261.553 117.68 265.313 116.24C269.073 114.8 272.633 113.52 275.993 112.4C279.433 111.36 282.673 110.2 285.713 108.92C287.153 104.68 288.113 100.24 288.593 95.6C288.833 93.2 288.953 91.12 288.953 89.36C288.953 87.52 288.833 86.32 288.593 85.76C287.713 87.44 286.553 89.48 285.113 91.88C283.673 94.28 282.033 96.64 280.193 98.96C278.353 101.2 276.353 103.08 274.193 104.6C272.113 106.12 269.953 106.88 267.713 106.88C266.913 106.88 266.153 106.76 265.433 106.52C263.193 105.56 261.553 104.2 260.513 102.44C259.553 100.68 259.073 98.68 259.073 96.44C259.073 92.84 260.113 88.96 262.193 84.8C264.273 80.64 266.753 76.84 269.633 73.4C271.953 70.6 274.673 68.36 277.793 66.68C280.913 65 284.073 64.16 287.273 64.16C290.953 64.16 294.393 65.4 297.593 67.88C298.793 68.84 299.393 69.88 299.393 71C299.393 72.2 298.913 72.8 297.953 72.8C297.153 72.8 296.593 72.28 296.273 71.24C295.153 68.28 293.353 66.8 290.873 66.8C288.873 66.8 286.593 67.68 284.033 69.44C281.473 71.12 279.073 73.24 276.833 75.8C274.913 77.96 273.033 80.44 271.193 83.24C269.433 86.04 267.953 88.8 266.753 91.52C265.633 94.24 265.073 96.6 265.073 98.6C265.073 99.96 265.393 101.12 266.033 102.08C266.673 103.04 267.673 103.52 269.033 103.52C270.873 103.52 272.793 102.64 274.793 100.88C276.873 99.12 278.833 96.96 280.673 94.4C282.593 91.84 284.233 89.24 285.593 86.6C287.033 83.96 288.033 81.76 288.593 80C289.153 78.16 289.913 77.04 290.873 76.64C291.833 76.16 292.793 75.92 293.753 75.92C294.713 75.92 295.513 75.68 296.153 75.2C296.473 76.96 296.673 78.76 296.753 80.6C296.913 82.36 296.993 84.16 296.993 86C296.993 92.16 296.193 98.36 294.593 104.6C296.033 103.48 297.513 102.28 299.033 101C300.633 99.64 301.993 98.2 303.113 96.68C305.113 93.96 306.593 91.48 307.553 89.24C308.593 86.92 309.393 85.12 309.953 83.84C310.433 83.04 310.953 82.64 311.513 82.64C311.993 82.64 312.233 82.88 312.233 83.36C312.233 83.76 312.073 84.24 311.753 84.8C309.753 89.04 307.913 92.68 306.233 95.72C304.553 98.68 302.713 101.2 300.713 103.28C298.713 105.28 296.233 107 293.273 108.44C291.993 112.28 290.073 116.32 287.513 120.56C284.953 124.8 281.953 128.8 278.513 132.56C275.073 136.32 271.313 139.36 267.233 141.68C263.153 144.08 258.913 145.28 254.513 145.28ZM251.633 142.88C253.393 142.88 255.233 142.48 257.153 141.68C259.153 140.96 261.033 140.08 262.793 139.04C264.553 138 265.913 137.12 266.873 136.4C268.713 134.96 270.593 133.16 272.513 131C274.433 128.84 276.113 126.76 277.553 124.76C278.913 122.84 280.193 120.8 281.393 118.64C282.673 116.56 283.753 114.48 284.633 112.4C283.993 112.64 283.193 112.92 282.233 113.24C281.353 113.56 280.713 113.8 280.313 113.96C277.673 114.84 274.753 115.84 271.553 116.96C268.433 118.16 265.313 119.44 262.193 120.8C259.073 122.24 256.233 123.8 253.673 125.48C251.433 127 249.593 129 248.153 131.48C246.633 133.96 245.873 136.12 245.873 137.96C245.873 139.32 246.353 140.48 247.313 141.44C248.193 142.4 249.633 142.88 251.633 142.88ZM324.18 107.12C322.66 107.12 321.14 106.52 319.62 105.32C318.1 104.04 317.34 102 317.34 99.2C317.34 97.04 317.86 94.56 318.9 91.76C319.86 89.04 321.14 86.4 322.74 83.84C324.42 81.28 325.62 79.2 326.34 77.6C326.58 76.96 326.7 76.4 326.7 75.92C326.7 74.48 325.78 73.44 323.94 72.8C322.18 72.16 319.86 71.8 316.98 71.72L315.54 75.68C314.66 78.24 313.42 81.24 311.82 84.68C310.3 88.12 308.58 91.44 306.66 94.64C304.82 97.84 302.9 100.4 300.9 102.32C300.74 102.48 300.54 102.56 300.3 102.56C299.98 102.56 299.78 102.36 299.7 101.96C299.54 101.56 299.7 101.08 300.18 100.52C303.3 96.36 306.1 91.76 308.58 86.72C311.06 81.6 313.14 76.4 314.82 71.12C316.58 65.84 317.86 60.96 318.66 56.48C318.9 55.2 319.34 54.28 319.98 53.72C320.62 53.08 321.3 52.76 322.02 52.76C323.06 52.76 324.02 53.28 324.9 54.32C325.78 55.28 326.22 56.68 326.22 58.52C326.22 58.84 326.18 59.2 326.1 59.6C326.1 60 326.06 60.4 325.98 60.8C325.66 62.48 324.7 64.08 323.1 65.6C321.58 67.04 320.34 68.12 319.38 68.84C320.18 68.92 321.02 69 321.9 69.08C322.78 69.08 323.74 69.08 324.78 69.08C328.54 69.08 332.26 68.84 335.94 68.36C336.1 68.84 336.18 69.2 336.18 69.44C336.18 70.48 335.86 71.8 335.22 73.4C334.66 75 334.06 76.44 333.42 77.72C333.1 78.44 332.46 79.76 331.5 81.68C330.54 83.52 329.5 85.64 328.38 88.04C327.26 90.36 326.3 92.68 325.5 95C324.78 97.24 324.42 99.16 324.42 100.76C324.42 102.84 325.22 103.88 326.82 103.88C328.02 103.88 329.34 103.12 330.78 101.6C332.22 100 333.62 98.08 334.98 95.84C336.42 93.52 337.7 91.28 338.82 89.12C340.02 86.88 340.94 85.12 341.58 83.84C341.9 83.04 342.34 82.64 342.9 82.64C343.22 82.64 343.38 82.92 343.38 83.48C343.38 83.8 343.26 84.28 343.02 84.92C342.14 86.76 341.1 88.84 339.9 91.16C338.7 93.48 337.34 95.76 335.82 98C334.38 100.24 332.78 102.2 331.02 103.88C329.34 105.48 327.5 106.52 325.5 107C325.26 107.08 324.82 107.12 324.18 107.12ZM367.109 107.36C366.229 107.44 365.229 107.24 364.109 106.76C362.989 106.28 361.989 105.4 361.109 104.12C360.309 102.84 359.909 101.04 359.909 98.72C359.909 96.8 360.269 94.48 360.989 91.76C360.029 93.28 358.789 95.16 357.269 97.4C355.749 99.56 354.109 101.48 352.349 103.16C350.829 104.6 349.389 105.64 348.029 106.28C346.669 106.92 345.429 107.24 344.309 107.24C342.229 107.24 340.549 106.32 339.269 104.48C337.989 102.56 337.349 100.08 337.349 97.04C337.349 93.84 338.149 90.2 339.749 86.12C341.349 82.04 343.949 77.8 347.549 73.4C349.869 70.6 352.669 68.36 355.949 66.68C359.309 64.92 362.589 64.04 365.789 64.04C367.629 64.04 369.389 64.36 371.069 65C372.749 65.56 374.229 66.52 375.509 67.88C376.069 68.44 376.349 69.08 376.349 69.8C376.349 70.28 376.149 70.68 375.749 71C375.349 71.32 374.829 71.4 374.189 71.24C373.309 68.44 371.429 67.04 368.549 67.04C367.189 67.04 365.629 67.48 363.869 68.36C361.149 69.8 358.309 72.16 355.349 75.44C352.469 78.72 349.949 82.12 347.789 85.64C347.469 86.12 346.949 87.04 346.229 88.4C345.589 89.76 344.949 91.28 344.309 92.96C343.669 94.64 343.229 96.28 342.989 97.88C342.909 98.36 342.869 98.72 342.869 98.96C342.869 99.12 342.869 99.4 342.869 99.8C342.869 102.44 343.869 103.76 345.869 103.76C348.269 103.76 350.989 102 354.029 98.48C356.109 95.92 357.989 93.24 359.669 90.44C361.349 87.64 363.069 84.64 364.829 81.44C366.029 79.28 367.149 77.48 368.189 76.04C369.229 74.6 370.709 73.88 372.629 73.88C373.509 73.88 374.389 74 375.269 74.24C376.149 74.48 377.069 74.52 378.029 74.36C377.389 75 376.509 76.2 375.389 77.96C374.349 79.72 373.229 81.72 372.029 83.96C370.829 86.2 369.749 88.48 368.789 90.8C367.829 93.12 367.149 95.12 366.749 96.8C366.669 97.28 366.549 97.96 366.389 98.84C366.309 99.72 366.269 100.36 366.269 100.76C366.269 103 366.909 104.12 368.189 104.12C369.469 104.12 370.829 103.36 372.269 101.84C373.789 100.32 375.269 98.44 376.709 96.2C378.149 93.96 379.469 91.72 380.669 89.48C381.869 87.16 382.829 85.28 383.549 83.84C383.869 83.04 384.349 82.64 384.989 82.64C385.389 82.64 385.589 82.92 385.589 83.48C385.589 83.72 385.469 84.16 385.229 84.8C384.269 86.8 383.109 89.08 381.749 91.64C380.389 94.12 378.909 96.56 377.309 98.96C375.709 101.28 374.029 103.24 372.269 104.84C370.589 106.36 368.869 107.2 367.109 107.36ZM365.136 139.76C364.176 139.76 363.216 139.6 362.256 139.28C361.216 139.04 360.176 139 359.136 139.16C359.616 138.68 360.536 137.28 361.896 134.96C363.256 132.72 364.856 129.92 366.696 126.56C368.456 123.2 370.336 119.56 372.336 115.64C374.336 111.72 376.216 107.88 377.976 104.12C379.736 100.28 381.216 96.8 382.416 93.68C383.696 90.48 384.496 87.96 384.816 86.12C384.096 87.16 383.376 87.76 382.656 87.92C382.016 88 381.856 87.76 382.176 87.2C382.336 86.88 382.656 86.12 383.136 84.92C383.696 83.64 384.176 82.56 384.576 81.68C385.216 80.08 385.736 78.32 386.136 76.4C386.616 74.48 386.856 72.64 386.856 70.88C386.856 69.76 386.736 68.8 386.496 68C386.256 67.2 385.816 66.76 385.176 66.68C385.176 66.68 385.616 66.6 386.496 66.44C387.376 66.28 388.296 66.12 389.256 65.96C390.216 65.8 390.856 65.72 391.176 65.72C391.656 65.64 392.096 65.6 392.496 65.6C392.896 65.52 393.256 65.48 393.576 65.48C394.296 65.48 394.776 65.76 395.016 66.32C395.336 66.8 395.496 67.84 395.496 69.44C395.496 71.44 395.136 74 394.416 77.12C393.776 80.16 393.016 82.84 392.136 85.16C393.016 83.72 394.136 81.88 395.496 79.64C396.936 77.4 398.576 75.12 400.416 72.8C402.256 70.48 404.176 68.56 406.176 67.04C408.176 65.44 410.136 64.64 412.056 64.64C412.456 64.64 412.976 64.72 413.616 64.88C415.856 65.44 417.416 66.56 418.296 68.24C419.256 69.84 419.736 71.76 419.736 74C419.736 76.4 419.256 79.04 418.296 81.92C417.416 84.8 416.216 87.64 414.696 90.44C413.176 93.16 411.496 95.64 409.656 97.88C407.416 100.68 404.736 102.92 401.616 104.6C398.496 106.28 395.296 107.12 392.016 107.12C389.056 107.12 386.296 106.36 383.736 104.84L372.336 133.52C371.216 135.92 370.136 137.56 369.096 138.44C368.056 139.32 366.736 139.76 365.136 139.76ZM388.176 104.6C390.416 104.6 392.936 103.56 395.736 101.48C398.536 99.4 401.216 96.76 403.776 93.56C406.416 90.28 408.616 87 410.376 83.72C411.576 81.48 412.456 79.44 413.016 77.6C413.576 75.68 413.856 74.04 413.856 72.68C413.856 69.56 412.736 68 410.496 68C409.456 68 408.096 68.56 406.416 69.68C404.816 70.8 402.936 72.84 400.776 75.8C398.456 79 395.896 83.04 393.096 87.92C390.376 92.72 387.576 97.8 384.696 103.16C385.656 104.12 386.816 104.6 388.176 104.6ZM412.403 107.96C415.763 101.08 419.243 93.88 422.843 86.36C426.523 78.76 430.283 71.12 434.123 63.44C437.963 55.76 441.763 48.44 445.523 41.48C446.883 39.08 448.123 37.2 449.243 35.84C450.443 34.48 452.003 33.8 453.923 33.8C454.643 33.8 455.483 33.92 456.443 34.16C457.403 34.4 458.323 34.44 459.203 34.28C458.163 35.4 456.723 37.36 454.883 40.16C453.123 42.96 451.123 46.32 448.883 50.24C446.723 54.16 444.403 58.4 441.923 62.96C439.523 67.44 437.123 72 434.723 76.64C432.403 81.2 430.243 85.48 428.243 89.48C429.843 87.4 431.483 85.44 433.163 83.6C434.843 81.76 436.483 80.16 438.083 78.8C439.843 77.2 442.043 75.52 444.683 73.76C447.403 72 450.083 70.48 452.723 69.2C455.443 67.92 457.603 67.28 459.203 67.28C459.763 67.28 460.163 67.32 460.403 67.4C460.403 67.4 459.963 68.2 459.083 69.8C458.203 71.4 457.083 73.44 455.723 75.92C454.443 78.4 453.083 81.08 451.643 83.96C450.283 86.84 449.083 89.6 448.043 92.24C447.003 94.8 446.323 96.92 446.003 98.6C445.763 99.88 445.643 100.96 445.643 101.84C445.643 103.12 445.883 104 446.363 104.48C446.843 104.88 447.363 105.08 447.923 105.08C449.283 105.08 450.763 104.24 452.363 102.56C453.963 100.88 455.523 98.84 457.043 96.44C458.563 93.96 459.923 91.56 461.123 89.24C462.403 86.92 463.363 85.12 464.003 83.84C464.483 82.96 464.963 82.52 465.443 82.52C465.923 82.52 466.163 82.84 466.163 83.48C466.163 83.8 466.043 84.28 465.803 84.92C464.763 87 463.563 89.36 462.203 92C460.923 94.56 459.443 97.04 457.763 99.44C456.163 101.76 454.363 103.68 452.363 105.2C450.443 106.72 448.363 107.48 446.123 107.48C444.523 107.48 442.883 106.92 441.203 105.8C439.523 104.68 438.683 102.64 438.683 99.68C438.683 98.8 438.763 97.88 438.923 96.92C439.083 95.88 439.363 94.72 439.763 93.44C440.243 91.84 441.043 90.08 442.163 88.16C443.283 86.16 444.723 83.68 446.483 80.72C447.283 79.36 447.683 78.28 447.683 77.48C447.683 76.52 447.203 76.04 446.243 76.04C445.443 76.04 444.363 76.44 443.003 77.24C441.643 78.04 439.923 79.44 437.843 81.44C435.843 83.36 433.363 86.16 430.403 89.84C427.443 93.52 424.283 98.68 420.923 105.32C420.363 106.36 419.723 106.92 419.003 107C418.363 107 417.483 107.04 416.363 107.12C415.643 107.2 414.923 107.24 414.203 107.24C413.483 107.32 412.883 107.56 412.403 107.96ZM447.801 145.28C443.641 145.28 440.681 144.44 438.921 142.76C437.161 141.16 436.281 139.24 436.281 137C436.281 135.8 436.441 134.76 436.761 133.88C437.081 133 437.561 131.88 438.201 130.52C439.321 128.2 440.881 126.2 442.881 124.52C444.881 122.84 447.041 121.48 449.361 120.44C453.521 118.52 458.241 116.96 463.521 115.76C468.881 114.56 474.001 113.24 478.881 111.8C480.401 109.16 481.801 106.16 483.081 102.8C484.361 99.36 485.521 96.04 486.561 92.84C487.601 89.56 488.441 86.88 489.081 84.8C488.121 86.56 486.881 88.72 485.361 91.28C483.921 93.76 482.281 96.2 480.441 98.6C478.601 101 476.601 103 474.441 104.6C472.361 106.2 470.161 107 467.841 107C466.961 107 465.881 106.8 464.601 106.4C463.401 106 462.321 105.28 461.361 104.24C460.481 103.12 460.041 101.48 460.041 99.32C460.041 97.24 460.521 95.24 461.481 93.32C462.521 91.32 463.481 89.4 464.361 87.56C464.121 87.56 463.841 87.48 463.521 87.32C463.281 87.16 463.161 86.92 463.161 86.6C463.161 86.28 463.241 85.96 463.401 85.64C463.721 85 464.081 84.32 464.481 83.6C464.881 82.88 465.241 82.12 465.561 81.32C466.761 78.84 467.961 76.48 469.161 74.24C470.361 71.92 471.401 69.88 472.281 68.12C473.161 66.36 474.681 65.48 476.841 65.48H484.281C483.721 65.96 483.001 66.52 482.121 67.16C481.321 67.72 480.561 68.6 479.841 69.8C477.681 73.48 475.801 77.04 474.201 80.48C472.601 83.84 470.881 87.44 469.041 91.28C468.161 93.12 467.521 94.8 467.121 96.32C466.721 97.84 466.521 99.16 466.521 100.28C466.521 102.92 467.401 104.24 469.161 104.24C471.081 104.24 473.401 102.68 476.121 99.56C478.361 96.92 480.601 93.8 482.841 90.2C485.161 86.52 487.361 82.76 489.441 78.92C491.601 75 493.481 71.4 495.081 68.12C495.961 66.36 497.521 65.48 499.761 65.48H506.361C504.041 67.08 502.241 69.16 500.961 71.72C499.761 74.28 498.401 77.56 496.881 81.56C495.201 85.96 493.601 90.52 492.081 95.24C490.641 99.88 489.001 104.56 487.161 109.28C489.801 108.4 492.761 107.04 496.041 105.2C499.401 103.36 502.241 100.72 504.561 97.28C506.401 94.56 507.961 91.96 509.241 89.48C510.601 86.92 511.561 85.08 512.121 83.96C512.441 83.16 512.881 82.76 513.441 82.76C514.001 82.76 514.281 83.12 514.281 83.84C514.281 84.24 514.161 84.68 513.921 85.16C511.841 89.32 509.961 92.84 508.281 95.72C506.681 98.52 504.881 100.96 502.881 103.04C500.961 105.04 498.601 106.8 495.801 108.32C493.001 109.92 489.441 111.52 485.121 113.12C483.201 116.56 481.001 120.12 478.521 123.8C476.121 127.56 473.361 131.04 470.241 134.24C467.201 137.52 463.801 140.16 460.041 142.16C456.361 144.24 452.281 145.28 447.801 145.28ZM444.921 142.88C447.561 142.88 450.281 142.08 453.081 140.48C455.881 138.88 458.601 136.84 461.241 134.36C463.881 131.96 466.281 129.48 468.441 126.92C470.681 124.44 472.481 122.24 473.841 120.32C474.241 119.76 474.681 119.04 475.161 118.16C475.641 117.28 476.121 116.44 476.601 115.64C472.681 116.68 468.361 117.8 463.641 119C459.001 120.28 454.961 121.68 451.521 123.2C447.681 124.8 444.681 127.08 442.521 130.04C440.281 133 439.161 135.64 439.161 137.96C439.161 139.4 439.641 140.56 440.601 141.44C441.481 142.4 442.921 142.88 444.921 142.88Z" fill="white"/>
<path d="M265.704 36H256.68V34.704H260.376V3.696H256.68V2.4H265.704V3.696H261.72V18.432H283.176V3.696H279.24V2.4H288.216V3.696H284.52V34.704H288.216V36H279.24V34.704H283.176V19.728H261.72V34.704H265.704V36ZM307.683 33.552C306.819 34.416 305.795 35.104 304.611 35.616C303.459 36.096 302.243 36.336 300.963 36.336C299.651 36.336 298.419 36.096 297.267 35.616C296.147 35.104 295.171 34.416 294.339 33.552C293.475 32.72 292.803 31.744 292.323 30.624C291.843 29.504 291.603 28.288 291.603 26.976C291.603 25.696 291.843 24.48 292.323 23.328C292.803 22.176 293.475 21.168 294.339 20.304C295.171 19.472 296.147 18.816 297.267 18.336C298.419 17.824 299.651 17.568 300.963 17.568C302.243 17.568 303.459 17.824 304.611 18.336C305.795 18.816 306.819 19.472 307.683 20.304C308.515 21.168 309.171 22.176 309.651 23.328C310.163 24.48 310.419 25.696 310.419 26.976C310.419 28.288 310.163 29.504 309.651 30.624C309.171 31.744 308.515 32.72 307.683 33.552ZM295.299 32.64C296.003 33.376 296.835 33.952 297.795 34.368C298.755 34.784 299.811 34.992 300.963 34.992C302.051 34.992 303.075 34.784 304.035 34.368C305.027 33.952 305.891 33.376 306.627 32.64C307.363 31.936 307.939 31.104 308.355 30.144C308.771 29.152 308.979 28.096 308.979 26.976C308.979 25.888 308.771 24.864 308.355 23.904C307.939 22.912 307.363 22.048 306.627 21.312C305.891 20.544 305.027 19.952 304.035 19.536C303.075 19.12 302.051 18.912 300.963 18.912C299.811 18.912 298.755 19.12 297.795 19.536C296.835 19.952 296.003 20.544 295.299 21.312C294.563 22.048 293.987 22.912 293.571 23.904C293.155 24.864 292.947 25.888 292.947 26.976C292.947 28.096 293.155 29.152 293.571 30.144C293.987 31.104 294.563 31.936 295.299 32.64ZM331.054 31.296C330.414 32.832 329.374 34.064 327.934 34.992C326.526 35.888 324.926 36.336 323.134 36.336C321.406 36.336 320.03 35.84 319.006 34.848C318.014 33.856 317.486 32.56 317.422 30.96V19.296H313.774V18H318.766V30.864C318.83 31.952 319.23 32.912 319.966 33.744C320.734 34.544 321.79 34.976 323.134 35.04C324.19 35.04 325.182 34.864 326.11 34.512C327.038 34.16 327.854 33.68 328.558 33.072C329.262 32.496 329.822 31.792 330.238 30.96C330.686 30.096 330.91 29.168 330.91 28.176V19.296H327.214V18H332.254V34.8H335.806V36H331.198L331.102 33.456L331.054 31.296ZM349.98 34.56C349.5 35.104 348.876 35.552 348.108 35.904C347.372 36.224 346.492 36.384 345.468 36.384C344.54 36.384 343.596 36.272 342.636 36.048C341.676 35.824 340.812 35.376 340.044 34.704V31.344H341.34V33.984C341.98 34.464 342.668 34.768 343.404 34.896C344.14 34.992 344.876 35.04 345.612 35.04C346.188 35.04 346.716 34.96 347.196 34.8C347.708 34.64 348.172 34.384 348.588 34.032C348.972 33.744 349.292 33.36 349.548 32.88C349.804 32.4 349.932 31.84 349.932 31.2C349.932 30.272 349.708 29.568 349.26 29.088C348.812 28.576 348.252 28.192 347.58 27.936C346.908 27.648 346.156 27.392 345.324 27.168C344.524 26.944 343.788 26.656 343.116 26.304C342.444 26.016 341.868 25.584 341.388 25.008C340.94 24.432 340.716 23.648 340.716 22.656C340.716 21.824 340.86 21.12 341.148 20.544C341.436 19.936 341.82 19.424 342.3 19.008C342.812 18.592 343.404 18.288 344.076 18.096C344.748 17.872 345.372 17.76 345.948 17.76C346.396 17.76 346.796 17.792 347.148 17.856C347.5 17.888 347.948 17.984 348.492 18.144C348.876 18.272 349.244 18.432 349.596 18.624C349.98 18.816 350.3 19.04 350.556 19.296V22.656H349.308V19.968C348.796 19.648 348.252 19.424 347.676 19.296C347.132 19.168 346.54 19.104 345.9 19.104C345.484 19.104 345.036 19.168 344.556 19.296C344.076 19.392 343.66 19.568 343.308 19.824C342.924 20.112 342.62 20.48 342.396 20.928C342.172 21.344 342.06 21.856 342.06 22.464C342.06 23.296 342.284 23.936 342.732 24.384C343.212 24.832 343.788 25.184 344.46 25.44C345.164 25.76 345.9 26.032 346.668 26.256C347.468 26.48 348.22 26.768 348.924 27.12C349.596 27.504 350.156 28 350.604 28.608C351.052 29.216 351.276 30.032 351.276 31.056C351.276 31.632 351.164 32.24 350.94 32.88C350.748 33.488 350.428 34.048 349.98 34.56ZM363.821 18.912C362.509 18.912 361.293 19.216 360.173 19.824C359.085 20.4 358.173 21.168 357.437 22.128C356.733 23.056 356.237 24.112 355.949 25.296C355.693 26.48 355.741 27.696 356.093 28.944C358.461 27.984 360.829 27.04 363.197 26.112C365.565 25.152 367.933 24.192 370.301 23.232C369.693 21.952 368.813 20.912 367.661 20.112C366.509 19.312 365.229 18.912 363.821 18.912ZM370.157 33.792C369.325 34.592 368.365 35.216 367.277 35.664C366.221 36.112 365.069 36.336 363.821 36.336C362.509 36.336 361.277 36.096 360.125 35.616C359.005 35.104 358.029 34.432 357.197 33.6C356.333 32.736 355.661 31.744 355.181 30.624C354.701 29.504 354.461 28.288 354.461 26.976C354.461 25.696 354.701 24.48 355.181 23.328C355.661 22.176 356.333 21.184 357.197 20.352C358.029 19.52 359.005 18.864 360.125 18.384C361.277 17.872 362.509 17.616 363.821 17.616C364.781 17.616 365.709 17.776 366.605 18.096C367.501 18.416 368.301 18.88 369.005 19.488C369.645 20.032 370.221 20.688 370.733 21.456C371.277 22.192 371.709 23.024 372.029 23.952C369.405 25.008 366.813 26.048 364.253 27.072C361.693 28.096 359.101 29.136 356.477 30.192C357.085 31.632 358.045 32.8 359.357 33.696C360.669 34.56 362.157 34.992 363.821 34.992C364.909 34.992 365.917 34.8 366.845 34.416C367.773 34.032 368.589 33.488 369.293 32.784L370.157 33.792ZM406.027 33.552C405.163 34.416 404.139 35.104 402.955 35.616C401.803 36.096 400.587 36.336 399.307 36.336C397.995 36.336 396.763 36.096 395.611 35.616C394.491 35.104 393.515 34.416 392.683 33.552C391.819 32.72 391.147 31.744 390.667 30.624C390.187 29.504 389.947 28.288 389.947 26.976C389.947 25.696 390.187 24.48 390.667 23.328C391.147 22.176 391.819 21.168 392.683 20.304C393.515 19.472 394.491 18.816 395.611 18.336C396.763 17.824 397.995 17.568 399.307 17.568C400.587 17.568 401.803 17.824 402.955 18.336C404.139 18.816 405.163 19.472 406.027 20.304C406.859 21.168 407.515 22.176 407.995 23.328C408.507 24.48 408.763 25.696 408.763 26.976C408.763 28.288 408.507 29.504 407.995 30.624C407.515 31.744 406.859 32.72 406.027 33.552ZM393.643 32.64C394.347 33.376 395.179 33.952 396.139 34.368C397.099 34.784 398.155 34.992 399.307 34.992C400.395 34.992 401.419 34.784 402.379 34.368C403.371 33.952 404.235 33.376 404.971 32.64C405.707 31.936 406.283 31.104 406.699 30.144C407.115 29.152 407.323 28.096 407.323 26.976C407.323 25.888 407.115 24.864 406.699 23.904C406.283 22.912 405.707 22.048 404.971 21.312C404.235 20.544 403.371 19.952 402.379 19.536C401.419 19.12 400.395 18.912 399.307 18.912C398.155 18.912 397.099 19.12 396.139 19.536C395.179 19.952 394.347 20.544 393.643 21.312C392.907 22.048 392.331 22.912 391.915 23.904C391.499 24.864 391.291 25.888 391.291 26.976C391.291 28.096 391.499 29.152 391.915 30.144C392.331 31.104 392.907 31.936 393.643 32.64ZM420.95 36H412.118V34.704H415.046V19.344H412.118V18H415.046V11.136C415.046 9.376 415.286 7.808 415.766 6.432C416.246 5.056 416.934 3.904 417.83 2.976C418.662 2.048 419.654 1.344 420.806 0.863997C421.958 0.351998 423.174 0.0639982 424.454 -2.86102e-06V1.296C423.366 1.296 422.326 1.536 421.334 2.016C420.374 2.464 419.542 3.104 418.838 3.936C418.07 4.768 417.462 5.792 417.014 7.008C416.598 8.192 416.39 9.536 416.39 11.04V18H422.486V19.344H416.39V34.704H420.95V36Z" fill="white"/>
</svg>
